<?xml version="1.0" encoding="utf-8"?>
<!-- Generator: Adobe Illustrator 16.0.0, SVG Export Plug-In . SVG Version: 6.00 Build 0)  -->
<!DOCTYPE svg PUBLIC "-//W3C//DTD SVG 1.1//EN" "http://www.w3.org/Graphics/SVG/1.1/DTD/svg11.dtd">
<svg version="1.1" id="Capa_1" xmlns="http://www.w3.org/2000/svg" xmlns:xlink="http://www.w3.org/1999/xlink" x="0px" y="0px"
	 width="566.93px" height="566.93px" viewBox="0 0 566.93 566.93" enable-background="new 0 0 566.93 566.93" xml:space="preserve">
<g>
	<g>
		<path fill="#FFFFFF" d="M566.93,107.696c-20.866,9.246-43.255,15.517-66.779,18.316c24.02-14.383,42.406-37.198,51.12-64.299
			c-22.53,13.32-47.4,22.992-73.9,28.235c-21.22-22.637-51.403-36.737-84.882-36.737c-64.228,0-116.305,52.077-116.305,116.27
			c0,9.104,1.027,17.997,3.012,26.5c-96.643-4.854-182.339-51.156-239.694-121.514c-10.026,17.147-15.73,37.126-15.73,58.454
			c0,40.351,20.548,75.955,51.723,96.785c-19.06-0.638-36.985-5.881-52.679-14.596v1.453c0,56.328,40.103,103.338,93.277,114.038
			c-9.743,2.622-20.016,4.074-30.644,4.074c-7.51,0-14.772-0.744-21.894-2.161c14.808,46.231,57.746,79.851,108.618,80.772
			c-39.784,31.176-89.948,49.704-144.434,49.704c-9.388,0-18.635-0.567-27.739-1.595c51.475,33.054,112.585,52.325,178.266,52.325
			c213.94,0,330.883-177.203,330.883-330.883l-0.391-15.056C531.609,151.483,551.377,131.007,566.93,107.696z"/>
	</g>
</g>
</svg>
