<?xml version="1.0" encoding="utf-8"?>
<!-- Generator: Adobe Illustrator 16.0.0, SVG Export Plug-In . SVG Version: 6.00 Build 0)  -->
<!DOCTYPE svg PUBLIC "-//W3C//DTD SVG 1.1//EN" "http://www.w3.org/Graphics/SVG/1.1/DTD/svg11.dtd">
<svg version="1.1" id="Capa_1" xmlns="http://www.w3.org/2000/svg" xmlns:xlink="http://www.w3.org/1999/xlink" x="0px" y="0px"
	 width="283.22px" height="86.818px" viewBox="0 0 283.22 86.818" enable-background="new 0 0 283.22 86.818" xml:space="preserve">
<rect x="-945.667" y="-163.666" fill="#C12C2C" width="900" height="112.333"/>
<g>
	<g>
		<path fill-rule="evenodd" clip-rule="evenodd" fill="#242D84" d="M-1125.831,192.002c2.284,0.531,4.583,1.341,6.902,2.433
			c2.316,1.092,4.65,2.136,7.001,3.128c2.349,0.993,4.666,1.802,6.95,2.433c2.284,0.627,4.551,0.76,6.802,0.396
			c2.25-0.364,4.435-1.407,6.554-3.127c1.068-0.868,2.119-1.989,3.153-3.361c1.016,1.243,2.574,1.872,4.691,1.872
			c1.589,0,3.293-0.348,5.114-1.042c1.82-0.696,3.674-1.655,5.561-2.88c1.886-1.224,3.773-2.664,5.66-4.319
			c1.887-1.654,3.724-3.441,5.511-5.363c0.928,0.531,2.118,0.795,3.575,0.795c1.39,0,2.746-0.264,4.071-0.795
			c1.323-0.529,2.598-1.241,3.823-2.135c0.356-0.26,0.7-0.556,1.047-0.838c-0.781,2.569-1.268,4.936-1.446,7.095
			c-0.231,2.814,0.133,5.098,1.092,6.852c0.96,1.754,2.698,2.631,5.213,2.631c1.59,0,3.293-0.348,5.114-1.042
			c1.82-0.696,3.674-1.655,5.562-2.88c1.887-1.224,3.773-2.664,5.658-4.319c1.887-1.654,3.725-3.441,5.512-5.363
			c0.926,0.531,2.119,0.795,3.576,0.795c1.389,0,2.746-0.264,4.07-0.795c1.322-0.529,2.598-1.241,3.822-2.135
			c0.026-0.019,0.051-0.042,0.076-0.061c-0.355,0.831-0.709,1.659-1.02,2.444c-1.588,4.006-2.35,7.233-2.285,9.681
			c0.066,2.45,1.326,3.674,3.775,3.674c-0.529,0-0.598-0.628-0.199-1.887c0.396-1.257,1.141-2.994,2.234-5.213
			c1.092-2.217,2.482-4.832,4.17-7.845c1.688-3.011,3.557-6.271,5.609-9.78c1.455-0.529,2.914-1.058,4.369-1.589
			c1.457-0.529,2.912-1.124,4.371-1.788c0,1.127-0.365,2.616-1.094,4.468c-0.729,1.855-1.572,3.808-2.531,5.859
			c-0.961,2.053-1.871,4.138-2.73,6.256c-0.861,2.119-1.359,4.039-1.49,5.759c-0.133,1.722,0.215,3.112,1.043,4.17
			c0.826,1.06,2.465,1.589,4.914,1.589c1.988,0,3.973-0.447,5.959-1.341s3.904-2.085,5.76-3.574
			c1.852-1.489,3.625-3.193,5.313-5.114c1.688-1.919,3.291-3.872,4.816-5.859c3.441-4.633,6.717-9.962,9.83-15.986h-10.326
			c1.191,0.331,1.787,1.258,1.787,2.78c0,1.523-0.414,3.312-1.242,5.362c-0.828,2.053-1.971,4.237-3.426,6.553
			c-1.457,2.319-3.029,4.454-4.717,6.406c-1.688,1.953-3.393,3.574-5.113,4.865c-1.723,1.291-3.277,1.936-4.668,1.936
			c-0.795,0-1.291-0.313-1.488-0.943c-0.199-0.629-0.184-1.439,0.049-2.433c0.23-0.993,0.645-2.135,1.242-3.425
			c0.594-1.291,1.256-2.597,1.984-3.923c1.721-3.177,3.973-6.752,6.752-10.725c-0.396-0.529-0.928-1.058-1.588-1.588
			c-0.596-0.463-1.357-0.927-2.283-1.391c-0.928-0.462-2.086-0.859-3.477-1.191c2.98-1.456,5.809-2.995,8.49-4.618
			c2.682-1.621,5.03-3.259,7.051-4.915c2.02-1.654,3.625-3.277,4.816-4.866c1.191-1.589,1.818-3.012,1.887-4.271
			c0.064-1.256-0.531-2.333-1.787-3.227c-1.258-0.894-3.344-1.505-6.258-1.837c0.266,0.596-0.264,1.954-1.588,4.071
			c-1.324,2.119-3.145,4.485-5.461,7.1c-2.318,2.616-5.016,5.28-8.094,7.993c-3.078,2.716-6.24,4.966-9.482,6.753
			c2.119-3.509,4.352-7.166,6.703-10.973c2.35-3.806,4.717-7.579,7.1-11.32c2.383-3.739,4.717-7.397,7-10.973
			c2.283-3.574,4.434-6.917,6.455-10.029c2.018-3.11,3.855-5.908,5.51-8.391s3.045-4.518,4.172-6.107
			c-0.596-0.859-1.49-1.654-2.682-2.383c-0.992-0.596-2.318-1.142-3.973-1.639c-1.654-0.496-3.74-0.745-6.254-0.745
			c0.859,0.596,0.727,2.35-0.398,5.263c-1.127,2.914-2.879,6.538-5.264,10.873c-2.381,4.337-5.162,9.17-8.34,14.498
			c-3.178,5.329-6.355,10.724-9.533,16.186c-2.225,3.822-4.337,7.577-6.351,11.271h-5.366c1.324,0.86,1.854,2.202,1.59,4.022
			c-0.266,1.821-0.979,3.657-2.135,5.51c-1.16,1.855-2.549,3.476-4.17,4.866c-1.623,1.391-3.162,2.085-4.617,2.085
			c-1.26,0-2.021-0.397-2.285-1.191c2.184-2.582,4.221-5.278,6.107-8.093c1.887-2.812,3.457-5.526,4.717-8.142
			c1.256-2.614,2.15-5.064,2.68-7.348c0.529-2.284,0.562-4.203,0.1-5.76c-0.463-1.555-1.49-2.647-3.078-3.277
			c-1.588-0.628-3.84-0.646-6.752-0.05c-1.986-1.589-4.17-2.101-6.553-1.539c-2.385,0.563-4.816,1.836-7.299,3.822
			s-4.916,4.536-7.299,7.646c-1.82,2.376-3.492,4.86-5.023,7.448h-5.203c1.322,0.86,1.852,2.202,1.588,4.022
			c-0.266,1.821-0.979,3.657-2.135,5.51c-1.159,1.855-2.55,3.476-4.171,4.866c-1.622,1.391-3.162,2.085-4.618,2.085
			c-1.258,0-2.02-0.397-2.283-1.191c2.186-2.582,4.221-5.278,6.107-8.093c1.887-2.812,3.459-5.526,4.717-8.142
			c1.256-2.614,2.149-5.064,2.681-7.348c0.529-2.284,0.562-4.203,0.1-5.76c-0.464-1.555-1.489-2.647-3.079-3.277
			c-1.589-0.628-3.84-0.646-6.752-0.05c-1.986-1.589-4.17-2.101-6.554-1.539c-2.384,0.563-4.815,1.836-7.298,3.822
			c-2.483,1.986-4.916,4.536-7.299,7.646c-2.383,3.112-4.517,6.404-6.405,9.88c-1.886,3.475-3.458,6.968-4.716,10.476
			c-1.257,3.51-2.001,6.67-2.234,9.483c-0.167,2.039-0.012,3.791,0.445,5.273c-0.435,0.111-0.879,0.194-1.338,0.238
			c-2.085,0.199-4.369,0.067-6.852-0.397c-2.482-0.463-5.081-1.125-7.794-1.985c-2.715-0.86-5.496-1.589-8.342-2.186
			c-0.066-0.993,0.729-3.012,2.384-6.057c1.654-3.044,3.806-6.668,6.454-10.874c2.647-4.202,5.593-8.771,8.838-13.703
			c3.243-4.93,6.487-9.764,9.731-14.497c3.243-4.732,6.271-9.136,9.086-13.207c2.813-4.071,5.114-7.398,6.902-9.979
			c-0.795-0.859-1.788-1.654-2.979-2.383c-1.06-0.595-2.45-1.142-4.17-1.638c-1.722-0.497-3.84-0.745-6.355-0.745
			c0.795,0.595,0.81,1.953,0.049,4.071c-0.762,2.12-2.02,4.751-3.773,7.895c-1.754,3.145-3.857,6.67-6.305,10.575
			c-2.45,3.907-4.964,7.912-7.546,12.015c-2.582,4.105-5.049,8.16-7.398,12.164c-2.35,4.006-4.319,7.73-5.908,11.171
			c-1.589,3.443-2.649,6.455-3.178,9.036c-0.531,2.582-0.199,4.436,0.993,5.561c-1.986-0.264-3.939-0.38-5.858-0.348
			c-1.92,0.035-3.808,0.348-5.66,0.943c-1.854,0.596-3.659,1.506-5.412,2.731c-1.755,1.226-3.426,2.897-5.015,5.015
			c2.118-1.853,4.285-2.944,6.504-3.276C-1130.365,191.373-1128.114,191.473-1125.831,192.002z M-1030.058,163.354
			c1.918-2.547,3.789-4.832,5.609-6.851c1.82-2.019,3.559-3.625,5.213-4.816c1.654-1.192,3.08-1.788,4.271-1.788
			c-0.398,0.53-0.961,1.291-1.689,2.284s-1.488,2.169-2.283,3.525c-0.795,1.358-1.588,2.864-2.383,4.518
			c-0.795,1.656-1.457,3.411-1.986,5.264c-0.596,1.457-1.061,2.914-1.391,4.369c-0.332,1.258-0.58,2.616-0.744,4.071
			c-0.166,1.457-0.117,2.847,0.148,4.17c-1.258,1.986-2.564,3.873-3.922,5.66c-1.357,1.788-2.764,3.326-4.221,4.617
			c-1.457,1.291-2.914,2.319-4.369,3.079c-1.457,0.762-2.879,1.141-4.269,1.141c-1.127,0-1.737-0.61-1.837-1.836
			c-0.1-1.224,0.198-2.846,0.894-4.866c0.695-2.019,1.703-4.303,3.029-6.852c1.322-2.548,2.83-5.164,4.518-7.844
			C-1033.78,168.517-1031.978,165.904-1030.058,163.354z M-1082.238,185.895c0.694-2.019,1.703-4.303,3.028-6.852
			c1.324-2.548,2.831-5.164,4.519-7.844c1.688-2.682,3.491-5.295,5.412-7.845c1.919-2.547,3.789-4.832,5.611-6.851
			c1.819-2.019,3.557-3.625,5.213-4.816c1.653-1.192,3.078-1.788,4.27-1.788c-0.396,0.53-0.961,1.291-1.688,2.284
			c-0.73,0.993-1.49,2.169-2.284,3.525c-0.795,1.358-1.589,2.864-2.384,4.518c-0.795,1.656-1.457,3.411-1.986,5.264
			c-0.596,1.457-1.059,2.914-1.391,4.369c-0.332,1.258-0.579,2.616-0.744,4.071c-0.166,1.457-0.116,2.847,0.148,4.17
			c-1.258,1.986-2.565,3.873-3.922,5.66c-1.357,1.788-2.765,3.326-4.22,4.617c-1.457,1.291-2.914,2.319-4.369,3.079
			c-1.458,0.762-2.88,1.141-4.27,1.141c-1.126,0-1.738-0.61-1.837-1.836C-1083.231,189.537-1082.934,187.915-1082.238,185.895z"/>
		<path fill-rule="evenodd" clip-rule="evenodd" fill="#242D84" d="M-965.266,284.35c-3.928,1.795-8.951,3.059-15.071,3.786
			c-6.117,0.725-12.967,1.074-20.553,1.045c-7.584-0.029-15.213-0.076-22.887-0.139c-7.674-0.064-15.047,0.057-22.119,0.365
			c-7.072,0.305-13.155,1.158-18.252,2.559c-5.094,1.396-8.86,3.504-11.295,6.314c-2.436,2.811-2.87,6.734-1.302,11.768
			c0.6-1.709,2.187-3.111,4.758-4.201c2.572-1.094,5.833-1.996,9.789-2.713c3.953-0.719,8.463-1.299,13.527-1.74
			c5.066-0.445,10.392-0.873,15.98-1.283c5.59-0.412,11.283-0.834,17.088-1.268c5.803-0.434,11.418-1,16.846-1.697
			c5.43-0.699,10.557-1.582,15.383-2.648c4.826-1.07,9.059-2.422,12.702-4.059c3.641-1.637,6.527-3.629,8.666-5.976
			c2.137-2.347,3.211-5.122,3.223-8.329C-959.176,279.813-961.34,282.551-965.266,284.35z"/>
		<path fill-rule="evenodd" clip-rule="evenodd" fill="#242D84" d="M-980.618,262.808h0.742c4.573-0.247,8.543-1.325,11.913-3.235
			c3.367-1.911,6.305-4.207,8.807-6.891c2.504-2.681,4.604-5.578,6.303-8.691s3.154-5.979,4.357-8.6
			c1.205-2.619,2.225-4.792,3.061-6.518c0.834-1.729,1.621-2.592,2.363-2.592c-3.029-0.864-5.549-0.801-7.555,0.187
			c-2.01,0.99-3.787,2.534-5.33,4.634c-3.152,0.125-6.244,0.883-9.271,2.271c-3.029,1.392-5.887,3.198-8.574,5.424
			c-2.689,2.225-5.131,4.76-7.325,7.602c-1.01,1.309-1.929,2.629-2.775,3.957h-3.988c1.191,0.332,1.789,1.258,1.789,2.78
			c0,0.392-0.03,0.803-0.085,1.229c-0.118,0.234-0.25,0.467-0.364,0.701c-1.22,2.521-2.113,4.994-2.719,7.423
			c-0.461,0.838-0.951,1.688-1.5,2.562c-1.457,2.318-3.029,4.453-4.717,6.405c-1.688,1.953-3.393,3.574-5.113,4.865
			c-1.723,1.291-3.277,1.937-4.668,1.937c-0.926,0-1.24-0.728-0.943-2.185c0.299-1.456,1.076-3.309,2.334-5.562
			c6.289-11.385,11.898-21.116,16.832-29.192c4.93-8.076,9.084-14.829,12.461-20.258c3.377-5.428,5.924-9.714,7.646-12.859
			c1.721-3.144,2.531-5.527,2.432-7.15c-0.098-1.621-1.141-2.664-3.127-3.127s-5-0.695-9.037-0.695c0.795,0,1.01,0.81,0.646,2.432
			c-0.365,1.623-1.143,3.808-2.334,6.554c-1.191,2.748-2.699,5.943-4.518,9.583c-1.822,3.642-3.809,7.447-5.959,11.419
			c-2.152,3.973-4.354,7.994-6.604,12.064c-2.141,3.873-4.173,7.559-6.104,11.072h-5.215c1.191,0.332,1.719,1.258,1.588,2.78
			c-0.133,1.524-0.713,3.312-1.738,5.362c-1.025,2.053-2.383,4.238-4.07,6.554c-1.688,2.318-3.461,4.453-5.312,6.405
			c-1.854,1.953-3.709,3.574-5.562,4.865c-1.852,1.291-3.475,1.937-4.863,1.937c-0.795,0-1.094-0.596-0.895-1.787
			c0.199-1.192,0.744-2.746,1.639-4.668c0.895-1.919,2.068-4.136,3.525-6.653c1.455-2.514,2.979-5.063,4.568-7.646
			c3.773-6.09,8.373-13.009,13.801-20.753c-0.596-0.859-1.488-1.654-2.68-2.383c-0.994-0.597-2.318-1.143-3.973-1.639
			c-1.656-0.497-3.74-0.745-6.256-0.745c1.256,0,1.787,0.712,1.59,2.135c-0.199,1.425-0.846,3.327-1.938,5.71
			s-2.482,5.08-4.17,8.092c-0.451,0.805-0.906,1.622-1.359,2.434h-5.441c1.191,0.397,1.738,1.391,1.637,2.979
			c-0.098,1.589-0.594,3.443-1.488,5.562c-0.893,2.119-2.086,4.368-3.574,6.752c-1.49,2.383-3.08,4.566-4.768,6.553
			s-3.359,3.625-5.014,4.916c-1.656,1.291-3.079,1.936-4.27,1.936c-0.861,0-1.227-0.596-1.093-1.787
			c0.133-1.191,0.612-2.764,1.44-4.717c0.827-1.951,1.937-4.186,3.326-6.702c1.391-2.516,2.913-5.081,4.569-7.696
			c1.652-2.614,3.34-5.179,5.064-7.695c1.719-2.516,3.34-4.75,4.863-6.703c1.523-1.951,2.863-3.525,4.023-4.717
			c1.156-1.191,2-1.787,2.531-1.787c-0.199-0.529-0.514-1.125-0.943-1.787c-0.432-0.662-1.01-1.274-1.738-1.838
			c-0.729-0.561-1.555-1.057-2.482-1.489c-0.928-0.43-1.984-0.677-3.178-0.745c-1.654-0.064-3.492,0.498-5.51,1.689
			c-2.021,1.19-4.09,2.797-6.207,4.815c-2.119,2.021-4.27,4.319-6.454,6.901c-2.185,2.582-4.271,5.262-6.256,8.043
			c3.177-5.229,6.519-10.641,10.029-16.234c3.508-5.594,6.901-10.939,10.178-16.037s6.289-9.715,9.035-13.853
			c2.746-4.137,4.916-7.364,6.506-9.682c-0.598-0.86-1.49-1.654-2.684-2.383c-0.992-0.597-2.316-1.142-3.971-1.639
			c-1.656-0.496-3.74-0.746-6.256-0.746c0.859,0.596,0.729,2.351-0.396,5.263c-1.127,2.914-2.881,6.538-5.264,10.873
			c-2.383,4.337-5.164,9.171-8.34,14.498c-3.179,5.33-6.355,10.724-9.534,16.187c-2.786,4.789-5.411,9.471-7.892,14.055h-9.273
			c1.337,0.373,1.875,1.433,1.616,3.178c-0.262,1.748-1.041,3.828-2.34,6.242c-1.301,2.416-3.048,4.999-5.24,7.748
			c-2.192,2.75-4.57,5.257-7.134,7.523c-2.563,2.268-5.166,4.162-7.802,5.686c-2.639,1.523-5.11,2.285-7.414,2.285
			c-3.641,0-6.038-1.338-7.189-4.014c-1.153-2.676-1.394-6.168-0.725-10.479c0.669-4.309,2.099-9.157,4.292-14.546
			c2.191-5.387,4.81-10.83,7.858-16.331c3.046-5.498,6.39-10.738,10.032-15.717c3.64-4.978,7.226-9.232,10.757-12.764
			c3.528-3.529,6.873-6.036,10.032-7.524c3.157-1.485,5.813-1.449,7.97,0.112c-2.156,2.452-4.235,5.35-6.242,8.694
			c-2.006,3.345-3.939,6.8-5.797,10.366c-1.857,3.568-3.661,7.098-5.406,10.59c-1.747,3.494-3.438,6.633-5.071,9.42
			c-1.636,2.786-3.177,5.054-4.626,6.799c-1.449,1.747-2.806,2.658-4.068,2.73c3.344,0.446,6.705-0.574,10.087-3.064
			c3.381-2.489,6.632-5.758,9.754-9.809c3.121-4.05,6.092-8.49,8.917-13.322c2.823-4.829,5.406-9.344,7.747-13.543
			c2.342-4.197,4.348-7.709,6.02-10.533c1.672-2.823,2.954-4.236,3.846-4.236c-2.379-1.115-4.7-1.243-6.967-0.39
			c-2.268,0.854-4.479,2.396-6.633,4.626c-2.676-3.27-5.667-5.109-8.973-5.519c-3.308-0.408-6.744,0.224-10.312,1.896
			c-3.566,1.672-7.153,4.255-10.756,7.747c-3.605,3.494-7.061,7.507-10.367,12.039c-3.307,4.534-6.354,9.401-9.14,14.603
			c-2.787,5.201-5.127,10.404-7.023,15.604c-1.895,5.204-3.251,10.2-4.068,14.994c-0.819,4.792-0.93,9.028-0.334,12.706
			c0.593,3.68,2.024,6.615,4.292,8.807c2.265,2.194,5.554,3.29,9.865,3.29c2.675,0,5.331-0.52,7.97-1.562
			c2.637-1.039,5.183-2.395,7.636-4.067c2.453-1.673,4.81-3.586,7.078-5.742c2.266-2.153,4.403-4.347,6.41-6.576
			c1.536-1.733,3.04-3.562,4.518-5.47c-0.489,1.126-0.938,2.212-1.344,3.257c-1.554,4.006-2.316,7.232-2.284,9.682
			c0.034,2.45,1.308,3.674,3.824,3.674c-0.795,0-0.579-1.373,0.645-4.12c1.226-2.747,3.062-6.372,5.512-10.874
			c2.447-3.707,5.129-7.447,8.043-11.221c2.912-3.773,5.76-7.183,8.539-10.229c2.781-3.043,5.296-5.525,7.546-7.447
			c2.25-1.918,3.938-2.879,5.064-2.879c-6.619,8.738-11.784,16.551-15.49,23.436c-1.589,2.912-2.947,5.775-4.071,8.588
			c-1.126,2.814-1.788,5.312-1.986,7.498c-0.198,2.184,0.214,3.938,1.241,5.263c1.025,1.325,2.895,1.985,5.611,1.985
			c1.653,0,3.358-0.447,5.113-1.34c1.753-0.895,3.476-2.086,5.164-3.575c1.002-0.884,1.99-1.853,2.969-2.889
			c-0.617,2.364-0.684,4.255-0.189,5.669c0.496,1.425,1.836,2.135,4.021,2.135c1.986,0,4.006-0.447,6.057-1.34
			c2.051-0.895,4.07-2.086,6.059-3.575c1.986-1.489,3.904-3.193,5.76-5.114c0.254-0.264,0.492-0.533,0.744-0.799
			c-0.316,0.843-0.601,1.658-0.846,2.438c-0.529,1.688-0.76,3.145-0.693,4.369c0.066,1.227,0.43,2.201,1.092,2.93
			s1.754,1.092,3.275,1.092c1.986,0,3.973-0.447,5.959-1.34c1.986-0.895,3.904-2.086,5.76-3.575
			c1.852-1.489,3.625-3.193,5.312-5.114c0.775-0.883,1.529-1.773,2.271-2.671c0.062,0.573,0.155,1.13,0.284,1.667
			c0.523,2.193,1.652,3.955,3.383,5.283c1.729,1.33,4.232,1.994,7.51,1.994c2.038,0,4.077-0.418,6.118-1.252
			c2.039-0.834,4.047-1.947,6.025-3.338c1.977-1.391,3.879-2.98,5.701-4.773s3.537-3.615,5.145-5.47
			c3.77-4.325,7.385-9.301,10.846-14.926h-9.641c1.113,0.31,1.561,1.202,1.346,2.681c-0.219,1.479-0.881,3.234-1.994,5.266
			c-1.113,2.033-2.564,4.173-4.357,6.42c-1.793,2.248-3.723,4.343-5.793,6.283c-2.072,1.941-4.141,3.543-6.211,4.805
			c-2.072,1.264-3.939,1.895-5.609,1.895c-1.608,0-2.844-0.34-3.708-1.021c-0.867-0.68-1.406-1.622-1.623-2.827
			s-0.139-2.61,0.232-4.218C-981.917,266.393-981.36,264.66-980.618,262.808z M-969.354,244.916
			c2.008-2.472,4.016-4.666,6.025-6.582c2.008-1.916,3.848-3.337,5.516-4.265c-1.422,2.534-2.734,5.3-3.939,8.297
			c-1.205,2.998-2.549,5.825-4.033,8.482c-1.482,2.657-3.23,4.913-5.236,6.768c-2.01,1.854-4.496,2.905-7.463,3.151
			c-0.557,0-0.959,0.032-1.207,0.092c1.236-2.595,2.768-5.283,4.59-8.064S-971.364,247.389-969.354,244.916z"/>
		<path fill-rule="evenodd" clip-rule="evenodd" fill="#242D84" d="M-1112.437,226.307c1.512-1.734,2.962-3.73,4.351-5.986h-3.868
			c0.446,0.123,0.625,0.481,0.539,1.074c-0.087,0.594-0.354,1.297-0.799,2.113c-0.446,0.814-1.029,1.674-1.749,2.574
			c-0.72,0.902-1.493,1.744-2.324,2.521c-0.831,0.779-1.662,1.422-2.492,1.928c-0.831,0.507-1.58,0.76-2.25,0.76
			c-0.645,0-1.14-0.137-1.487-0.41c-0.347-0.271-0.564-0.65-0.65-1.133c-0.087-0.484-0.056-1.048,0.092-1.692
			c0.149-0.646,0.372-1.339,0.669-2.083h0.298c1.834-0.1,3.428-0.531,4.779-1.299c1.351-0.766,2.529-1.688,3.533-2.764
			c1.004-1.075,1.847-2.238,2.53-3.486c0.681-1.25,1.264-2.399,1.748-3.45s0.893-1.923,1.227-2.616
			c0.334-0.692,0.651-1.039,0.949-1.039c-1.215-0.346-2.226-0.32-3.032,0.075c-0.805,0.396-1.519,1.017-2.138,1.859
			c-1.265,0.05-2.504,0.353-3.719,0.911c-1.215,0.559-2.362,1.283-3.44,2.176c-1.079,0.893-2.059,1.91-2.938,3.051
			c-0.238,0.309-0.463,0.618-0.678,0.93h-2.167c0.447,0.123,0.669,0.471,0.669,1.041s-0.162,1.24-0.484,2.008
			c-0.321,0.769-0.75,1.588-1.283,2.454c-0.534,0.868-1.123,1.669-1.767,2.399c-0.644,0.732-1.289,1.338-1.933,1.822
			c-0.646,0.483-1.228,0.725-1.749,0.725c-0.347,0-0.453-0.266-0.316-0.799c0.136-0.533,0.415-1.232,0.836-2.102
			c0.273-0.545,0.725-1.363,1.358-2.454c0.632-1.091,1.375-2.331,2.231-3.72s1.772-2.883,2.752-4.481s1.965-3.192,2.957-4.779
			c2.306-3.719,4.847-7.747,7.624-12.087c-0.223-0.322-0.557-0.619-1.004-0.893c-0.371-0.224-0.874-0.428-1.506-0.613
			c-0.632-0.187-1.419-0.279-2.362-0.279c0.273,0,0.354,0.248,0.243,0.743c-0.112,0.497-0.354,1.172-0.726,2.026
			c-0.372,0.856-0.862,1.86-1.469,3.014c-0.608,1.152-1.277,2.387-2.008,3.7c-0.732,1.315-1.5,2.678-2.307,4.091
			c-0.806,1.414-1.605,2.803-2.398,4.166c0-0.991-0.211-1.748-0.632-2.27c-0.793-0.892-1.655-1.319-2.584-1.282
			c-0.93,0.037-1.866,0.403-2.808,1.097c-0.942,0.695-1.86,1.631-2.752,2.809c-0.893,1.178-1.699,2.449-2.418,3.812
			s-1.32,2.746-1.803,4.146c-0.484,1.401-0.793,2.666-0.93,3.793c-0.136,1.129-0.068,2.053,0.205,2.771s0.818,1.078,1.636,1.078
			c0.917,0,1.823-0.303,2.715-0.91c0.893-0.608,1.772-1.383,2.641-2.326c-0.298,0.968-0.366,1.748-0.205,2.344
			c0.161,0.596,0.675,0.893,1.543,0.893c0.744,0,1.487-0.168,2.231-0.502s1.463-0.781,2.157-1.339
			c0.694-0.558,1.357-1.196,1.989-1.915c0.34-0.387,0.648-0.787,0.97-1.181c-0.069,0.731-0.038,1.406,0.108,2.017
			c0.211,0.882,0.664,1.588,1.357,2.12c0.694,0.533,1.698,0.8,3.013,0.8c0.818,0,1.637-0.168,2.455-0.502s1.624-0.781,2.417-1.339
			c0.793-0.558,1.556-1.196,2.288-1.915C-1113.77,227.783-1113.082,227.051-1112.437,226.307z M-1135.086,227.627
			c-0.694,0.955-1.389,1.748-2.083,2.381c-0.694,0.633-1.302,0.948-1.822,0.948c-0.521,0-0.725-0.421-0.614-1.265
			c0.112-0.842,0.415-1.891,0.911-3.143c0.496-1.251,1.14-2.584,1.934-3.998c0.793-1.412,1.63-2.695,2.511-3.849
			c0.879-1.153,1.735-2.052,2.566-2.697c0.831-0.645,1.543-0.817,2.138-0.521c0.224,0.125,0.354,0.366,0.391,0.726
			s0.006,0.787-0.092,1.282h-2.344c0.446,0.125,0.645,0.546,0.595,1.266c-0.05,0.719-0.26,1.574-0.632,2.565
			c-0.372,0.992-0.868,2.052-1.487,3.181C-1133.735,225.632-1134.392,226.673-1135.086,227.627z M-1120.191,221.956
			c0.731-1.116,1.5-2.169,2.306-3.161c0.806-0.991,1.612-1.873,2.417-2.641c0.806-0.769,1.543-1.34,2.213-1.711
			c-0.57,1.017-1.097,2.126-1.581,3.328c-0.483,1.203-1.022,2.338-1.618,3.403c-0.595,1.066-1.296,1.972-2.101,2.716
			c-0.806,0.744-1.803,1.165-2.994,1.264c-0.223,0-0.385,0.013-0.484,0.037C-1121.537,224.15-1120.922,223.071-1120.191,221.956z"/>
		<path fill-rule="evenodd" clip-rule="evenodd" fill="#242D84" d="M-1055.852,139.529c1.229,0.945,3.008,1.417,5.336,1.417
			c1.449,0,2.898-0.296,4.349-0.89c1.449-0.593,2.876-1.383,4.282-2.372c1.406-0.988,2.755-2.119,4.052-3.393
			c0.596-0.585,1.17-1.176,1.732-1.77c-0.322,0.813-0.615,1.601-0.846,2.331c-0.35,1.12-0.504,2.087-0.461,2.899
			c0.045,0.813,0.287,1.461,0.725,1.944c0.439,0.483,1.166,0.724,2.176,0.724c1.316,0,2.635-0.296,3.953-0.889
			c1.316-0.593,2.59-1.384,3.82-2.372s2.404-2.119,3.525-3.393c1.121-1.273,2.184-2.569,3.195-3.887
			c2.283-3.074,4.457-6.61,6.523-10.607h-6.854c0.791,0.22,1.186,0.835,1.186,1.845c0,1.011-0.273,2.197-0.822,3.558
			c-0.551,1.362-1.309,2.812-2.273,4.349c-0.967,1.538-2.01,2.955-3.129,4.25c-1.121,1.296-2.252,2.372-3.395,3.229
			s-2.174,1.285-3.096,1.285c-0.615,0-0.824-0.482-0.627-1.449c0.199-0.966,0.715-2.196,1.549-3.69
			c4.174-7.554,7.895-14.011,11.168-19.37c3.271-5.358,6.029-9.838,8.27-13.441c2.24-3.601,3.93-6.445,5.072-8.532
			c1.143-2.085,1.68-3.667,1.615-4.744c-0.066-1.076-0.758-1.768-2.076-2.075s-3.316-0.461-5.996-0.461
			c0.527,0,0.67,0.539,0.428,1.614c-0.24,1.077-0.756,2.527-1.547,4.349c-0.791,1.823-1.791,3.943-2.998,6.358
			c-1.209,2.417-2.527,4.942-3.953,7.577c-1.428,2.635-2.889,5.304-4.381,8.005c-1.494,2.701-2.91,5.271-4.25,7.708
			c-0.031,0.056-0.06,0.108-0.09,0.164h-3.631c0.791,0.22,1.107,0.854,0.955,1.905c-0.154,1.051-0.627,2.299-1.416,3.743
			c-0.791,1.445-1.824,2.965-3.098,4.563c-1.275,1.598-2.646,3.086-4.117,4.466c-1.473,1.379-2.944,2.517-4.415,3.415
			c-1.472,0.898-2.8,1.346-3.985,1.346c-1.144,0-2.021-0.241-2.636-0.725c-0.616-0.483-1.001-1.153-1.153-2.009
			c-0.154-0.857-0.1-1.855,0.164-2.998c0.264-1.142,0.659-2.372,1.187-3.689h0.527c3.249-0.175,6.071-0.941,8.466-2.3
			c2.394-1.358,4.48-2.99,6.259-4.896c1.779-1.906,3.271-3.965,4.48-6.178c1.207-2.212,2.24-4.25,3.096-6.112
			c0.857-1.861,1.582-3.406,2.176-4.633c0.592-1.227,1.152-1.841,1.68-1.841c-2.154-0.614-3.943-0.57-5.369,0.132
			c-1.43,0.703-2.691,1.801-3.789,3.294c-2.24,0.088-4.438,0.626-6.59,1.614c-2.152,0.988-4.183,2.273-6.093,3.854
			c-1.911,1.581-3.646,3.382-5.205,5.402c-1.561,2.021-2.845,4.075-3.854,6.16c-1.01,2.087-1.724,4.129-2.142,6.127
			c-0.416,2-0.438,3.778-0.065,5.337C-1057.883,137.333-1057.083,138.585-1055.852,139.529z M-1047.914,122.695
			c1.295-1.977,2.657-3.843,4.085-5.601c1.427-1.756,2.855-3.316,4.283-4.678c1.426-1.361,2.734-2.372,3.92-3.031
			c-1.012,1.801-1.943,3.767-2.799,5.897c-0.857,2.131-1.812,4.14-2.867,6.028c-1.054,1.889-2.295,3.492-3.723,4.81
			c-1.428,1.318-3.194,2.065-5.304,2.24c-0.395,0-0.682,0.022-0.856,0.066C-1050.297,126.583-1049.209,124.672-1047.914,122.695z"/>
		<path fill-rule="evenodd" clip-rule="evenodd" fill="#242D84" d="M-1013.581,228.034c-0.188,0.245-0.373,0.489-0.58,0.756
			c0.062-0.017,0.098-0.026,0.133-0.037c2.301-0.679,4.602-1.36,6.902-2.042c0.09-0.025,0.135-0.013,0.188,0.065
			c1.361,1.986,2.725,3.968,4.09,5.951c0.018,0.027,0.037,0.054,0.068,0.095c0.002-0.053,0.004-0.084,0.006-0.116
			c0.064-2.409,0.127-4.817,0.188-7.226c0.004-0.088,0.033-0.12,0.115-0.145c2.299-0.677,4.596-1.357,6.896-2.037
			c0.031-0.009,0.064-0.021,0.094-0.031c0-0.008,0-0.016,0.002-0.021c-0.043-0.016-0.086-0.031-0.125-0.045
			c-2.25-0.799-4.496-1.595-6.744-2.392c-0.068-0.024-0.113-0.04-0.111-0.136c0.062-2.172,0.117-4.344,0.176-6.514
			c0.008-0.276,0.014-0.55,0.021-0.842c-0.037,0.041-0.059,0.068-0.082,0.096c-1.463,1.905-2.93,3.811-4.391,5.717
			c-0.059,0.078-0.105,0.087-0.191,0.057c-2.254-0.803-4.508-1.601-6.76-2.4c-0.041-0.014-0.082-0.024-0.148-0.047
			c0.039,0.059,0.061,0.092,0.08,0.123c1.357,1.975,2.717,3.951,4.074,5.924c0.045,0.063,0.055,0.105,0.002,0.176
			C-1010.981,224.652-1012.28,226.344-1013.581,228.034z"/>
	</g>
	<g>
		<path fill-rule="evenodd" clip-rule="evenodd" fill="#FFFFFF" d="M-1126.613,191.313c2.284,0.53,4.584,1.341,6.902,2.433
			c2.315,1.092,4.649,2.136,7,3.129c2.35,0.992,4.666,1.803,6.951,2.433c2.283,0.628,4.551,0.76,6.801,0.396
			c2.25-0.364,4.436-1.407,6.555-3.128c1.068-0.867,2.119-1.988,3.152-3.361c1.016,1.243,2.574,1.872,4.691,1.872
			c1.589,0,3.293-0.348,5.114-1.042c1.819-0.696,3.674-1.655,5.562-2.881c1.886-1.224,3.772-2.664,5.659-4.318
			s3.724-3.441,5.511-5.363c0.928,0.531,2.118,0.795,3.575,0.795c1.39,0,2.746-0.264,4.071-0.795
			c1.323-0.529,2.598-1.241,3.823-2.135c0.356-0.26,0.7-0.556,1.048-0.838c-0.781,2.568-1.268,4.936-1.446,7.094
			c-0.231,2.814,0.133,5.099,1.092,6.852c0.96,1.755,2.698,2.632,5.213,2.632c1.59,0,3.293-0.348,5.114-1.042
			c1.82-0.696,3.674-1.655,5.562-2.881c1.887-1.224,3.773-2.664,5.659-4.318c1.887-1.654,3.725-3.441,5.512-5.363
			c0.926,0.531,2.118,0.795,3.575,0.795c1.39,0,2.746-0.264,4.07-0.795c1.323-0.529,2.598-1.241,3.823-2.135
			c0.025-0.02,0.051-0.042,0.076-0.061c-0.356,0.831-0.709,1.658-1.021,2.444c-1.588,4.006-2.35,7.233-2.284,9.681
			c0.066,2.451,1.325,3.675,3.774,3.675c-0.529,0-0.597-0.628-0.199-1.887c0.397-1.257,1.142-2.994,2.234-5.214
			c1.092-2.217,2.482-4.831,4.171-7.844c1.688-3.012,3.557-6.271,5.609-9.781c1.455-0.529,2.913-1.058,4.369-1.589
			c1.456-0.529,2.912-1.124,4.37-1.788c0,1.127-0.365,2.616-1.094,4.469c-0.729,1.855-1.572,3.809-2.531,5.859
			c-0.96,2.053-1.871,4.138-2.73,6.256c-0.861,2.119-1.358,4.039-1.489,5.76c-0.134,1.722,0.214,3.111,1.042,4.17
			c0.827,1.06,2.466,1.589,4.915,1.589c1.987,0,3.973-0.447,5.958-1.341c1.986-0.894,3.905-2.085,5.76-3.574
			c1.853-1.489,3.625-3.193,5.312-5.114c1.688-1.919,3.292-3.872,4.816-5.858c3.441-4.633,6.718-9.963,9.83-15.986h-10.326
			c1.191,0.33,1.787,1.258,1.787,2.779c0,1.523-0.414,3.312-1.242,5.362c-0.828,2.053-1.971,4.237-3.426,6.554
			c-1.456,2.318-3.028,4.453-4.716,6.405s-3.393,3.574-5.114,4.865c-1.723,1.291-3.277,1.937-4.667,1.937
			c-0.795,0-1.291-0.313-1.489-0.943c-0.198-0.629-0.184-1.439,0.049-2.434c0.231-0.992,0.646-2.135,1.242-3.425
			c0.595-1.291,1.257-2.597,1.985-3.923c1.721-3.178,3.972-6.752,6.752-10.725c-0.396-0.529-0.928-1.059-1.589-1.588
			c-0.595-0.463-1.356-0.927-2.283-1.391c-0.928-0.462-2.085-0.859-3.476-1.191c2.979-1.455,5.809-2.995,8.49-4.618
			c2.681-1.621,5.029-3.259,7.05-4.915c2.02-1.654,3.625-3.277,4.816-4.865c1.191-1.589,1.819-3.012,1.887-4.271
			c0.064-1.257-0.53-2.333-1.787-3.227c-1.258-0.894-3.344-1.505-6.257-1.837c0.265,0.596-0.265,1.953-1.588,4.07
			c-1.325,2.119-3.145,4.486-5.462,7.101c-2.317,2.616-5.015,5.28-8.093,7.993c-3.078,2.716-6.24,4.966-9.483,6.753
			c2.119-3.509,4.352-7.165,6.703-10.973c2.35-3.806,4.717-7.579,7.1-11.32c2.383-3.739,4.718-7.397,7.001-10.973
			c2.283-3.574,4.434-6.917,6.454-10.029c2.019-3.11,3.855-5.908,5.511-8.391c1.654-2.482,3.045-4.518,4.171-6.107
			c-0.595-0.859-1.489-1.654-2.681-2.383c-0.993-0.596-2.318-1.142-3.973-1.639c-1.655-0.496-3.74-0.745-6.255-0.745
			c0.859,0.596,0.727,2.35-0.397,5.263c-1.127,2.914-2.88,6.538-5.264,10.873c-2.382,4.337-5.163,9.17-8.34,14.498
			c-3.179,5.329-6.355,10.725-9.534,16.186c-2.224,3.822-4.337,7.578-6.351,11.271h-5.365c1.324,0.859,1.854,2.201,1.589,4.021
			s-0.978,3.657-2.135,5.51c-1.159,1.855-2.549,3.477-4.17,4.866c-1.623,1.391-3.162,2.085-4.617,2.085
			c-1.259,0-2.021-0.396-2.284-1.191c2.184-2.582,4.22-5.277,6.106-8.094c1.887-2.812,3.458-5.525,4.717-8.142
			c1.257-2.614,2.15-5.064,2.681-7.348c0.529-2.284,0.562-4.203,0.1-5.76c-0.464-1.555-1.49-2.647-3.078-3.276
			c-1.589-0.629-3.84-0.646-6.753-0.051c-1.985-1.589-4.17-2.101-6.553-1.538c-2.384,0.563-4.816,1.837-7.299,3.822
			s-4.915,4.536-7.299,7.646c-1.819,2.376-3.492,4.86-5.022,7.448h-5.203c1.322,0.859,1.852,2.201,1.588,4.021
			c-0.266,1.82-0.979,3.657-2.135,5.51c-1.159,1.855-2.55,3.477-4.171,4.866c-1.622,1.391-3.162,2.085-4.618,2.085
			c-1.258,0-2.02-0.396-2.283-1.191c2.186-2.582,4.221-5.277,6.107-8.094c1.887-2.812,3.459-5.525,4.717-8.142
			c1.256-2.614,2.149-5.064,2.681-7.348c0.529-2.284,0.562-4.203,0.1-5.76c-0.464-1.555-1.489-2.647-3.079-3.276
			c-1.589-0.629-3.84-0.646-6.752-0.051c-1.986-1.589-4.17-2.101-6.554-1.538c-2.384,0.563-4.815,1.837-7.298,3.822
			c-2.483,1.985-4.916,4.536-7.299,7.646c-2.383,3.112-4.518,6.404-6.405,9.88c-1.886,3.475-3.458,6.968-4.716,10.477
			c-1.258,3.51-2.002,6.67-2.234,9.482c-0.168,2.039-0.013,3.791,0.445,5.273c-0.436,0.111-0.88,0.193-1.339,0.238
			c-2.085,0.198-4.369,0.066-6.853-0.397c-2.482-0.463-5.08-1.125-7.794-1.985c-2.716-0.86-5.496-1.59-8.342-2.186
			c-0.066-0.992,0.729-3.012,2.384-6.057c1.654-3.045,3.807-6.669,6.454-10.874c2.647-4.202,5.593-8.771,8.838-13.703
			c3.243-4.931,6.487-9.764,9.731-14.497c3.242-4.732,6.271-9.136,9.086-13.207c2.812-4.071,5.113-7.398,6.901-9.979
			c-0.795-0.859-1.788-1.654-2.979-2.383c-1.06-0.595-2.449-1.142-4.17-1.638c-1.723-0.497-3.84-0.745-6.355-0.745
			c0.795,0.595,0.811,1.953,0.049,4.071c-0.762,2.12-2.02,4.751-3.773,7.895c-1.754,3.146-3.856,6.671-6.305,10.575
			c-2.449,3.907-4.965,7.912-7.547,12.016c-2.582,4.105-5.049,8.159-7.398,12.164c-2.35,4.006-4.318,7.729-5.907,11.171
			c-1.589,3.443-2.649,6.455-3.178,9.036c-0.53,2.582-0.198,4.436,0.993,5.561c-1.986-0.264-3.939-0.379-5.859-0.348
			c-1.92,0.035-3.807,0.348-5.659,0.943c-1.854,0.596-3.659,1.506-5.412,2.73c-1.755,1.227-3.426,2.897-5.015,5.016
			c2.117-1.854,4.285-2.945,6.504-3.277C-1131.148,190.685-1128.896,190.784-1126.613,191.313z M-1030.84,162.666
			c1.919-2.547,3.789-4.832,5.61-6.852c1.82-2.02,3.559-3.625,5.213-4.816s3.079-1.787,4.271-1.787
			c-0.397,0.53-0.961,1.291-1.688,2.283c-0.729,0.993-1.489,2.17-2.283,3.525c-0.795,1.357-1.589,2.864-2.384,4.518
			c-0.794,1.656-1.456,3.41-1.985,5.264c-0.596,1.457-1.061,2.914-1.391,4.369c-0.332,1.258-0.58,2.616-0.744,4.071
			c-0.167,1.457-0.117,2.847,0.148,4.171c-1.259,1.985-2.565,3.873-3.922,5.66c-1.357,1.787-2.765,3.326-4.221,4.617
			c-1.457,1.29-2.914,2.318-4.369,3.078c-1.457,0.762-2.88,1.141-4.27,1.141c-1.127,0-1.737-0.609-1.837-1.836
			c-0.1-1.225,0.198-2.846,0.894-4.865s1.703-4.303,3.028-6.852c1.323-2.549,2.831-5.164,4.519-7.845
			C-1034.563,167.828-1032.76,165.215-1030.84,162.666z M-1083.02,185.207c0.694-2.02,1.703-4.303,3.028-6.852
			c1.323-2.549,2.83-5.164,4.518-7.845c1.688-2.683,3.491-5.296,5.412-7.845c1.919-2.547,3.789-4.832,5.611-6.852
			c1.819-2.02,3.557-3.625,5.213-4.816c1.653-1.191,3.078-1.787,4.27-1.787c-0.396,0.53-0.961,1.291-1.688,2.283
			c-0.73,0.993-1.49,2.17-2.284,3.525c-0.795,1.357-1.589,2.864-2.384,4.518c-0.795,1.656-1.457,3.41-1.986,5.264
			c-0.596,1.457-1.059,2.914-1.391,4.369c-0.332,1.258-0.579,2.616-0.744,4.071c-0.166,1.457-0.116,2.847,0.148,4.171
			c-1.258,1.985-2.565,3.873-3.922,5.66c-1.357,1.787-2.765,3.326-4.22,4.617c-1.457,1.29-2.913,2.318-4.369,3.078
			c-1.458,0.762-2.88,1.141-4.271,1.141c-1.126,0-1.737-0.609-1.837-1.836C-1084.013,188.848-1083.716,187.227-1083.02,185.207z"/>
		<path fill-rule="evenodd" clip-rule="evenodd" fill="#FFFFFF" d="M-966.048,283.66c-3.929,1.797-8.952,3.059-15.07,3.788
			c-6.117,0.725-12.968,1.072-20.553,1.045c-7.584-0.031-15.213-0.078-22.888-0.141c-7.674-0.064-15.046,0.059-22.118,0.365
			c-7.072,0.305-13.155,1.16-18.252,2.559c-5.094,1.398-8.859,3.506-11.295,6.316c-2.436,2.809-2.869,6.732-1.303,11.768
			c0.6-1.711,2.188-3.111,4.758-4.201c2.572-1.094,5.834-1.998,9.789-2.715c3.953-0.719,8.463-1.297,13.527-1.74
			c5.066-0.445,10.393-0.873,15.98-1.281c5.59-0.414,11.283-0.836,17.087-1.268c5.803-0.436,11.419-1.002,16.847-1.697
			c5.429-0.699,10.557-1.582,15.382-2.65c4.826-1.068,9.06-2.422,12.701-4.059c3.641-1.637,6.528-3.627,8.667-5.975
			c2.137-2.348,3.211-5.123,3.223-8.328C-959.959,279.125-962.124,281.863-966.048,283.66z"/>
		<path fill-rule="evenodd" clip-rule="evenodd" fill="#FFFFFF" d="M-981.4,262.119h0.741c4.573-0.247,8.543-1.324,11.912-3.236
			c3.368-1.91,6.305-4.206,8.807-6.889c2.504-2.682,4.604-5.578,6.304-8.692c1.699-3.113,3.154-5.979,4.357-8.6
			c1.205-2.619,2.225-4.792,3.061-6.519c0.834-1.728,1.621-2.59,2.363-2.59c-3.029-0.865-5.549-0.803-7.555,0.186
			c-2.01,0.99-3.787,2.535-5.331,4.635c-3.151,0.125-6.243,0.881-9.271,2.271s-5.886,3.197-8.574,5.423
			c-2.688,2.225-5.131,4.76-7.323,7.603c-1.01,1.309-1.93,2.628-2.775,3.956h-3.988c1.191,0.332,1.788,1.259,1.788,2.78
			c0,0.393-0.03,0.803-0.085,1.229c-0.117,0.234-0.25,0.467-0.363,0.701c-1.221,2.521-2.113,4.993-2.719,7.423
			c-0.461,0.838-0.951,1.688-1.501,2.562c-1.456,2.318-3.028,4.453-4.717,6.404c-1.688,1.954-3.393,3.576-5.112,4.867
			c-1.724,1.29-3.278,1.936-4.668,1.936c-0.926,0-1.241-0.728-0.943-2.186c0.298-1.455,1.076-3.309,2.333-5.561
			c6.289-11.385,11.898-21.116,16.832-29.193c4.93-8.076,9.085-14.828,12.462-20.257c3.376-5.428,5.923-9.714,7.646-12.859
			c1.721-3.144,2.532-5.526,2.433-7.149c-0.099-1.621-1.142-2.664-3.128-3.128c-1.986-0.463-4.999-0.694-9.036-0.694
			c0.795,0,1.009,0.811,0.646,2.432c-0.365,1.623-1.143,3.809-2.334,6.555s-2.699,5.942-4.518,9.582
			c-1.822,3.642-3.809,7.447-5.959,11.42c-2.152,3.971-4.354,7.992-6.604,12.063c-2.141,3.872-4.174,7.56-6.104,11.072h-5.216
			c1.191,0.332,1.72,1.259,1.589,2.78c-0.134,1.523-0.713,3.312-1.738,5.361c-1.026,2.053-2.383,4.238-4.071,6.555
			c-1.688,2.318-3.46,4.453-5.312,6.404c-1.854,1.954-3.708,3.576-5.562,4.867c-1.853,1.29-3.475,1.936-4.864,1.936
			c-0.795,0-1.093-0.596-0.894-1.787c0.198-1.191,0.744-2.746,1.638-4.668c0.895-1.918,2.068-4.137,3.526-6.652
			c1.454-2.516,2.979-5.064,4.567-7.646c3.773-6.09,8.373-13.008,13.802-20.753c-0.596-0.86-1.489-1.654-2.681-2.384
			c-0.993-0.596-2.318-1.141-3.972-1.639c-1.656-0.496-3.741-0.744-6.257-0.744c1.257,0,1.787,0.711,1.59,2.135
			c-0.199,1.424-0.845,3.326-1.938,5.71c-1.092,2.383-2.481,5.081-4.17,8.093c-0.45,0.805-0.905,1.621-1.358,2.433h-5.442
			c1.191,0.397,1.738,1.392,1.638,2.979c-0.099,1.588-0.595,3.442-1.489,5.561c-0.893,2.119-2.085,4.369-3.574,6.752
			c-1.489,2.384-3.079,4.568-4.767,6.554c-1.688,1.987-3.36,3.624-5.015,4.915c-1.655,1.291-3.078,1.938-4.27,1.938
			c-0.861,0-1.227-0.597-1.093-1.788c0.133-1.192,0.612-2.763,1.44-4.717c0.827-1.952,1.937-4.186,3.326-6.702
			c1.391-2.516,2.912-5.08,4.568-7.696c1.653-2.614,3.341-5.179,5.064-7.694c1.72-2.516,3.341-4.75,4.864-6.704
			c1.523-1.952,2.863-3.524,4.022-4.716c1.157-1.192,2.001-1.788,2.532-1.788c-0.199-0.529-0.514-1.125-0.943-1.787
			c-0.432-0.661-1.01-1.274-1.738-1.837c-0.729-0.562-1.556-1.059-2.482-1.49c-0.928-0.43-1.985-0.678-3.178-0.744
			c-1.655-0.066-3.492,0.496-5.51,1.688c-2.021,1.191-4.09,2.798-6.207,4.816c-2.119,2.02-4.271,4.319-6.454,6.901
			c-2.185,2.582-4.271,5.263-6.256,8.043c3.177-5.229,6.519-10.641,10.029-16.235c3.508-5.594,6.9-10.938,10.179-16.037
			c3.276-5.097,6.288-9.713,9.035-13.852c2.746-4.137,4.915-7.363,6.505-9.682c-0.597-0.86-1.49-1.654-2.683-2.383
			c-0.992-0.597-2.316-1.143-3.971-1.639c-1.656-0.496-3.741-0.746-6.256-0.746c0.859,0.597,0.728,2.352-0.397,5.264
			c-1.127,2.914-2.88,6.539-5.263,10.873c-2.384,4.337-5.164,9.17-8.341,14.498c-3.179,5.33-6.355,10.725-9.534,16.186
			c-2.785,4.789-5.41,9.471-7.892,14.057h-9.272c1.337,0.373,1.875,1.432,1.615,3.176c-0.262,1.748-1.041,3.83-2.34,6.243
			c-1.302,2.415-3.049,4.999-5.24,7.747c-2.192,2.751-4.57,5.258-7.134,7.524c-2.563,2.268-5.166,4.163-7.802,5.685
			c-2.64,1.525-5.111,2.285-7.414,2.285c-3.641,0-6.038-1.338-7.189-4.012c-1.152-2.677-1.394-6.168-0.725-10.479
			c0.669-4.31,2.099-9.158,4.292-14.547c2.19-5.387,4.81-10.83,7.858-16.33c3.046-5.499,6.391-10.738,10.032-15.719
			c3.64-4.977,7.226-9.232,10.757-12.762c3.528-3.529,6.873-6.037,10.032-7.525c3.157-1.484,5.813-1.449,7.97,0.112
			c-2.156,2.452-4.235,5.351-6.242,8.694c-2.006,3.345-3.939,6.8-5.797,10.367c-1.857,3.566-3.66,7.098-5.406,10.589
			c-1.746,3.494-3.438,6.632-5.07,9.42c-1.637,2.786-3.178,5.054-4.627,6.8s-2.806,2.657-4.068,2.73
			c3.344,0.445,6.705-0.574,10.088-3.066c3.381-2.488,6.632-5.757,9.754-9.809c3.121-4.049,6.092-8.488,8.917-13.32
			c2.823-4.83,5.406-9.344,7.747-13.544c2.342-4.197,4.348-7.708,6.02-10.533c1.672-2.823,2.954-4.236,3.846-4.236
			c-2.379-1.114-4.7-1.243-6.967-0.39c-2.268,0.855-4.479,2.396-6.633,4.626c-2.676-3.27-5.667-5.108-8.973-5.519
			c-3.308-0.408-6.744,0.224-10.312,1.896c-3.566,1.672-7.153,4.255-10.757,7.747c-3.605,3.494-7.061,7.507-10.367,12.039
			c-3.307,4.533-6.354,9.401-9.14,14.602c-2.787,5.202-5.128,10.406-7.022,15.605c-1.896,5.203-3.252,10.199-4.068,14.994
			c-0.819,4.793-0.93,9.029-0.334,12.707c0.593,3.679,2.023,6.615,4.291,8.806c2.266,2.193,5.554,3.289,9.865,3.289
			c2.675,0,5.33-0.518,7.97-1.561c2.637-1.039,5.183-2.396,7.636-4.068s4.811-3.584,7.078-5.74c2.266-2.154,4.402-4.348,6.409-6.577
			c1.536-1.733,3.04-3.562,4.519-5.47c-0.489,1.125-0.939,2.213-1.345,3.257c-1.554,4.007-2.316,7.233-2.284,9.682
			c0.035,2.45,1.309,3.674,3.824,3.674c-0.795,0-0.579-1.373,0.645-4.12c1.226-2.746,3.062-6.371,5.512-10.874
			c2.447-3.706,5.129-7.448,8.043-11.221c2.912-3.772,5.76-7.183,8.539-10.228c2.781-3.045,5.296-5.527,7.547-7.448
			c2.25-1.919,3.938-2.879,5.064-2.879c-6.62,8.737-11.784,16.55-15.49,23.435c-1.589,2.914-2.947,5.776-4.071,8.589
			c-1.126,2.815-1.788,5.313-1.986,7.497c-0.198,2.186,0.214,3.939,1.241,5.264c1.025,1.324,2.895,1.985,5.611,1.985
			c1.653,0,3.358-0.447,5.113-1.341c1.753-0.893,3.476-2.085,5.164-3.574c1.002-0.885,1.99-1.854,2.968-2.889
			c-0.616,2.363-0.683,4.256-0.188,5.669c0.496,1.425,1.836,2.135,4.021,2.135c1.986,0,4.006-0.447,6.058-1.341
			c2.051-0.893,4.07-2.085,6.058-3.574c1.986-1.49,3.904-3.193,5.76-5.114c0.255-0.265,0.493-0.534,0.744-0.799
			c-0.315,0.843-0.601,1.657-0.845,2.438c-0.529,1.688-0.761,3.145-0.694,4.369c0.066,1.226,0.431,2.202,1.092,2.93
			c0.662,0.729,1.755,1.092,3.276,1.092c1.986,0,3.973-0.447,5.958-1.341c1.986-0.893,3.905-2.085,5.76-3.574
			c1.853-1.49,3.625-3.193,5.312-5.114c0.776-0.883,1.53-1.774,2.271-2.671c0.062,0.574,0.156,1.13,0.284,1.666
			c0.524,2.195,1.653,3.956,3.383,5.285c1.729,1.33,4.233,1.993,7.51,1.993c2.038,0,4.077-0.418,6.118-1.252
			c2.039-0.835,4.046-1.947,6.025-3.337c1.977-1.391,3.878-2.98,5.701-4.775c1.821-1.791,3.536-3.614,5.145-5.469
			c3.77-4.325,7.385-9.301,10.846-14.926h-9.641c1.113,0.31,1.561,1.203,1.346,2.68c-0.219,1.479-0.881,3.235-1.994,5.268
			c-1.113,2.031-2.565,4.172-4.357,6.42c-1.793,2.248-3.723,4.342-5.793,6.283c-2.072,1.94-4.142,3.541-6.211,4.805
			c-2.072,1.263-3.94,1.893-5.609,1.893c-1.608,0-2.844-0.339-3.708-1.02c-0.866-0.68-1.406-1.622-1.622-2.827
			c-0.218-1.204-0.14-2.61,0.231-4.218C-982.699,265.703-982.142,263.973-981.4,262.119z M-970.136,244.227
			c2.007-2.471,4.016-4.665,6.025-6.582c2.007-1.914,3.847-3.336,5.515-4.264c-1.421,2.534-2.734,5.3-3.939,8.297
			c-1.205,2.998-2.548,5.826-4.032,8.482c-1.483,2.658-3.23,4.913-5.237,6.768c-2.009,1.854-4.496,2.904-7.463,3.152
			c-0.557,0-0.959,0.031-1.206,0.092c1.236-2.596,2.767-5.283,4.59-8.064C-974.062,249.325-972.146,246.699-970.136,244.227z"/>
		<path fill-rule="evenodd" clip-rule="evenodd" fill="#FFFFFF" d="M-1113.218,225.619c1.512-1.735,2.962-3.732,4.351-5.988h-3.868
			c0.447,0.124,0.626,0.482,0.539,1.075s-0.354,1.298-0.799,2.112c-0.446,0.816-1.029,1.674-1.748,2.576
			c-0.721,0.901-1.494,1.742-2.324,2.521c-0.831,0.778-1.662,1.42-2.492,1.928c-0.831,0.506-1.58,0.759-2.25,0.759
			c-0.645,0-1.141-0.136-1.488-0.409c-0.347-0.272-0.564-0.65-0.65-1.135c-0.087-0.482-0.056-1.047,0.093-1.691
			c0.149-0.645,0.372-1.34,0.669-2.084h0.299c1.834-0.098,3.428-0.53,4.779-1.297c1.35-0.768,2.528-1.688,3.532-2.765
			c1.004-1.075,1.847-2.237,2.53-3.487c0.681-1.248,1.264-2.398,1.747-3.449s0.893-1.923,1.228-2.615
			c0.334-0.693,0.65-1.039,0.948-1.039c-1.215-0.348-2.226-0.322-3.032,0.074c-0.805,0.396-1.518,1.018-2.138,1.859
			c-1.265,0.05-2.504,0.354-3.719,0.911c-1.216,0.558-2.362,1.284-3.44,2.176c-1.078,0.894-2.059,1.909-2.938,3.05
			c-0.238,0.309-0.463,0.619-0.679,0.93h-2.167c0.447,0.125,0.67,0.471,0.67,1.041c0,0.571-0.162,1.24-0.484,2.009
			c-0.321,0.769-0.75,1.587-1.283,2.454c-0.533,0.869-1.122,1.668-1.767,2.4c-0.644,0.73-1.288,1.338-1.933,1.821
			c-0.646,0.483-1.229,0.726-1.749,0.726c-0.347,0-0.452-0.267-0.315-0.799c0.136-0.533,0.414-1.234,0.836-2.103
			c0.273-0.545,0.725-1.363,1.358-2.454c0.632-1.092,1.376-2.331,2.231-3.72c0.855-1.388,1.771-2.882,2.752-4.481
			c0.979-1.6,1.965-3.192,2.957-4.779c2.305-3.719,4.846-7.748,7.623-12.088c-0.223-0.321-0.557-0.618-1.004-0.893
			c-0.371-0.223-0.874-0.427-1.506-0.613c-0.633-0.186-1.42-0.278-2.362-0.278c0.272,0,0.354,0.248,0.243,0.743
			c-0.112,0.496-0.354,1.172-0.727,2.027c-0.371,0.855-0.861,1.859-1.469,3.013s-1.277,2.386-2.008,3.7
			c-0.732,1.314-1.5,2.678-2.307,4.091c-0.806,1.414-1.605,2.803-2.398,4.166c0-0.991-0.211-1.748-0.633-2.269
			c-0.793-0.893-1.654-1.32-2.584-1.283s-1.866,0.403-2.809,1.097c-0.941,0.694-1.859,1.631-2.752,2.808
			c-0.893,1.179-1.698,2.449-2.418,3.812c-0.719,1.363-1.319,2.747-1.803,4.146c-0.484,1.402-0.793,2.666-0.93,3.794
			c-0.137,1.129-0.068,2.053,0.205,2.771c0.272,0.721,0.817,1.08,1.635,1.08c0.918,0,1.823-0.304,2.716-0.912
			c0.893-0.607,1.772-1.382,2.641-2.324c-0.298,0.967-0.366,1.748-0.204,2.343c0.16,0.595,0.675,0.894,1.543,0.894
			c0.744,0,1.487-0.168,2.231-0.504c0.744-0.334,1.463-0.779,2.157-1.338c0.693-0.559,1.357-1.195,1.989-1.916
			c0.341-0.387,0.647-0.785,0.97-1.18c-0.068,0.73-0.037,1.406,0.109,2.018c0.211,0.881,0.663,1.586,1.356,2.119
			c0.694,0.533,1.698,0.801,3.013,0.801c0.818,0,1.637-0.168,2.455-0.504c0.818-0.334,1.623-0.779,2.418-1.338
			c0.793-0.559,1.555-1.195,2.287-1.916C-1114.552,227.094-1113.864,226.362-1113.218,225.619z M-1135.869,226.939
			c-0.694,0.955-1.389,1.748-2.082,2.381c-0.695,0.631-1.303,0.947-1.822,0.947c-0.521,0-0.726-0.422-0.614-1.265
			c0.112-0.843,0.415-1.89,0.911-3.143c0.496-1.251,1.141-2.585,1.934-3.997c0.794-1.414,1.631-2.697,2.512-3.85
			c0.879-1.153,1.734-2.053,2.565-2.697s1.543-0.818,2.138-0.521c0.225,0.125,0.354,0.367,0.391,0.727s0.007,0.787-0.092,1.283
			h-2.344c0.446,0.123,0.645,0.545,0.596,1.265c-0.051,0.72-0.261,1.574-0.633,2.565c-0.372,0.992-0.868,2.053-1.487,3.181
			C-1134.517,224.943-1135.174,225.984-1135.869,226.939z M-1120.973,221.268c0.731-1.115,1.5-2.17,2.306-3.161
			s1.611-1.872,2.418-2.642c0.805-0.768,1.543-1.338,2.213-1.711c-0.57,1.018-1.098,2.127-1.581,3.33
			c-0.483,1.202-1.022,2.336-1.618,3.402c-0.595,1.066-1.296,1.971-2.102,2.715c-0.805,0.744-1.803,1.166-2.993,1.264
			c-0.224,0-0.385,0.014-0.484,0.038C-1122.319,223.462-1121.705,222.383-1120.973,221.268z"/>
		<path fill-rule="evenodd" clip-rule="evenodd" fill="#FFFFFF" d="M-1056.634,138.84c1.229,0.945,3.008,1.417,5.336,1.417
			c1.449,0,2.898-0.296,4.349-0.89c1.449-0.594,2.876-1.383,4.282-2.371c1.405-0.988,2.756-2.119,4.053-3.394
			c0.595-0.585,1.169-1.176,1.731-1.77c-0.322,0.813-0.615,1.601-0.845,2.331c-0.351,1.119-0.504,2.086-0.461,2.898
			c0.045,0.813,0.286,1.461,0.725,1.943c0.439,0.483,1.165,0.725,2.175,0.725c1.317,0,2.635-0.297,3.953-0.889
			c1.317-0.594,2.591-1.385,3.821-2.373c1.229-0.988,2.404-2.118,3.525-3.393c1.12-1.273,2.184-2.569,3.195-3.887
			c2.283-3.075,4.457-6.611,6.522-10.608h-6.853c0.791,0.22,1.186,0.835,1.186,1.845c0,1.011-0.274,2.197-0.823,3.558
			c-0.55,1.362-1.308,2.812-2.272,4.348c-0.967,1.538-2.01,2.955-3.13,4.25c-1.12,1.297-2.252,2.372-3.394,3.229
			c-1.143,0.856-2.174,1.285-3.097,1.285c-0.614,0-0.823-0.482-0.626-1.449c0.198-0.967,0.715-2.196,1.549-3.69
			c4.173-7.554,7.895-14.011,11.168-19.37c3.271-5.358,6.028-9.838,8.269-13.441c2.24-3.601,3.931-6.445,5.073-8.532
			c1.143-2.085,1.68-3.667,1.614-4.744c-0.066-1.076-0.758-1.768-2.075-2.075c-1.318-0.307-3.317-0.461-5.996-0.461
			c0.527,0,0.67,0.539,0.428,1.614c-0.241,1.077-0.757,2.527-1.548,4.349c-0.79,1.823-1.79,3.943-2.997,6.358
			c-1.209,2.417-2.527,4.942-3.953,7.577c-1.429,2.635-2.89,5.304-4.382,8.005c-1.494,2.701-2.91,5.271-4.25,7.708
			c-0.03,0.056-0.06,0.108-0.089,0.164h-3.632c0.791,0.22,1.108,0.854,0.955,1.905c-0.154,1.051-0.626,2.299-1.416,3.743
			c-0.791,1.445-1.823,2.966-3.097,4.563c-1.275,1.598-2.646,3.086-4.117,4.465c-1.474,1.38-2.944,2.518-4.415,3.415
			c-1.472,0.897-2.8,1.347-3.985,1.347c-1.144,0-2.021-0.242-2.636-0.726c-0.616-0.483-1.001-1.153-1.153-2.009
			c-0.154-0.857-0.1-1.855,0.164-2.998s0.659-2.373,1.187-3.689h0.527c3.249-0.176,6.071-0.941,8.466-2.3
			c2.394-1.358,4.48-2.99,6.259-4.896c1.779-1.906,3.272-3.965,4.48-6.178c1.207-2.212,2.24-4.25,3.097-6.112
			c0.856-1.861,1.582-3.406,2.175-4.633s1.152-1.841,1.68-1.841c-2.153-0.614-3.943-0.57-5.369,0.132
			c-1.429,0.703-2.691,1.801-3.789,3.294c-2.24,0.088-4.437,0.626-6.589,1.614s-4.184,2.273-6.094,3.854
			c-1.911,1.581-3.646,3.382-5.205,5.402c-1.561,2.021-2.845,4.075-3.854,6.16c-1.01,2.087-1.724,4.129-2.142,6.127
			c-0.416,2-0.438,3.778-0.065,5.337C-1058.666,136.645-1057.865,137.896-1056.634,138.84z M-1048.696,122.007
			c1.295-1.977,2.657-3.843,4.085-5.601c1.427-1.756,2.855-3.316,4.282-4.678c1.427-1.361,2.734-2.372,3.921-3.031
			c-1.012,1.801-1.943,3.767-2.8,5.897c-0.856,2.131-1.812,4.14-2.866,6.028c-1.055,1.889-2.296,3.492-3.724,4.81
			c-1.428,1.318-3.194,2.065-5.304,2.24c-0.395,0-0.682,0.022-0.856,0.065C-1051.08,125.894-1049.992,123.983-1048.696,122.007z"/>
		<path fill-rule="evenodd" clip-rule="evenodd" fill="#FFFFFF" d="M-1014.364,227.346c-0.188,0.245-0.373,0.489-0.579,0.756
			c0.062-0.018,0.097-0.027,0.132-0.037c2.301-0.68,4.603-1.359,6.903-2.041c0.089-0.026,0.135-0.014,0.188,0.064
			c1.361,1.986,2.725,3.969,4.089,5.951c0.019,0.027,0.038,0.053,0.068,0.094c0.003-0.052,0.005-0.084,0.006-0.115
			c0.064-2.408,0.127-4.817,0.188-7.227c0.003-0.088,0.032-0.119,0.114-0.145c2.3-0.676,4.597-1.355,6.897-2.035
			c0.03-0.01,0.063-0.021,0.094-0.033c-0.001-0.008,0-0.016,0.001-0.021c-0.042-0.016-0.085-0.029-0.125-0.044
			c-2.249-0.798-4.495-1.595-6.744-2.392c-0.067-0.024-0.112-0.041-0.111-0.137c0.062-2.171,0.118-4.344,0.176-6.514
			c0.008-0.275,0.015-0.549,0.022-0.842c-0.038,0.042-0.06,0.069-0.082,0.096c-1.464,1.906-2.93,3.812-4.392,5.719
			c-0.059,0.077-0.105,0.086-0.191,0.056c-2.253-0.804-4.508-1.601-6.76-2.399c-0.04-0.016-0.082-0.025-0.148-0.047
			c0.039,0.058,0.061,0.091,0.081,0.122c1.357,1.975,2.716,3.95,4.073,5.925c0.045,0.062,0.056,0.104,0.002,0.176
			C-1011.763,223.963-1013.063,225.655-1014.364,227.346z"/>
	</g>
</g>
<g>
	<g>
		<g>
			<path fill-rule="evenodd" clip-rule="evenodd" fill="#FFFFFF" d="M-586.235-94.721c1.19,0.276,2.389,0.699,3.597,1.268
				c1.206,0.569,2.423,1.113,3.647,1.63c1.224,0.517,2.432,0.939,3.621,1.268c1.19,0.327,2.372,0.396,3.545,0.207
				c1.172-0.189,2.311-0.733,3.414-1.629c0.557-0.452,1.104-1.036,1.644-1.751c0.528,0.647,1.341,0.976,2.443,0.976
				c0.828,0,1.716-0.181,2.665-0.543c0.948-0.362,1.914-0.862,2.896-1.5c0.983-0.638,1.967-1.388,2.949-2.25
				c0.983-0.862,1.94-1.793,2.872-2.794c0.483,0.277,1.104,0.414,1.862,0.414c0.725,0,1.431-0.137,2.121-0.414
				c0.689-0.276,1.354-0.647,1.992-1.112c0.186-0.136,0.364-0.29,0.546-0.437c-0.407,1.338-0.661,2.572-0.753,3.697
				c-0.121,1.466,0.068,2.656,0.568,3.57c0.5,0.914,1.406,1.371,2.716,1.371c0.829,0,1.716-0.181,2.664-0.543s1.915-0.862,2.898-1.5
				c0.983-0.638,1.966-1.388,2.948-2.25c0.983-0.862,1.94-1.793,2.872-2.794c0.482,0.277,1.104,0.414,1.863,0.414
				c0.724,0,1.431-0.137,2.12-0.414c0.689-0.276,1.354-0.647,1.992-1.112c0.014-0.01,0.026-0.022,0.039-0.032
				c-0.185,0.433-0.369,0.864-0.531,1.273c-0.827,2.087-1.224,3.769-1.19,5.044c0.034,1.276,0.691,1.915,1.967,1.915
				c-0.275,0-0.312-0.328-0.104-0.983c0.207-0.655,0.595-1.56,1.164-2.716c0.569-1.155,1.294-2.517,2.173-4.087
				c0.879-1.569,1.854-3.267,2.923-5.096c0.758-0.276,1.519-0.551,2.276-0.828c0.759-0.275,1.518-0.585,2.277-0.931
				c0,0.587-0.19,1.363-0.57,2.328c-0.379,0.966-0.818,1.984-1.318,3.053c-0.501,1.07-0.975,2.156-1.423,3.259
				c-0.448,1.104-0.708,2.104-0.776,3.001c-0.069,0.897,0.112,1.622,0.544,2.173c0.43,0.552,1.284,0.828,2.56,0.828
				c1.036,0,2.07-0.233,3.105-0.699c1.035-0.466,2.034-1.086,3.001-1.862c0.965-0.776,1.889-1.664,2.769-2.665
				c0.879-1,1.715-2.018,2.509-3.053c1.794-2.414,3.5-5.191,5.122-8.33h-5.38c0.62,0.173,0.931,0.656,0.931,1.449
				c0,0.793-0.216,1.725-0.647,2.794c-0.431,1.069-1.026,2.208-1.784,3.414c-0.76,1.208-1.579,2.32-2.458,3.338
				c-0.88,1.017-1.769,1.862-2.665,2.535c-0.897,0.673-1.707,1.009-2.432,1.009c-0.414,0-0.673-0.163-0.775-0.491
				c-0.104-0.328-0.096-0.75,0.025-1.268c0.12-0.518,0.336-1.112,0.647-1.785c0.31-0.673,0.654-1.354,1.033-2.044
				c0.897-1.656,2.07-3.519,3.519-5.588c-0.207-0.275-0.483-0.551-0.827-0.828c-0.311-0.241-0.708-0.483-1.19-0.724
				c-0.482-0.241-1.086-0.448-1.811-0.621c1.553-0.758,3.026-1.561,4.423-2.406c1.398-0.845,2.621-1.698,3.675-2.561
				c1.052-0.862,1.889-1.708,2.51-2.535c0.62-0.828,0.947-1.569,0.982-2.225c0.033-0.655-0.276-1.215-0.931-1.681
				c-0.655-0.465-1.742-0.784-3.261-0.957c0.139,0.311-0.138,1.018-0.827,2.121c-0.69,1.104-1.639,2.337-2.846,3.699
				c-1.208,1.363-2.613,2.751-4.218,4.165c-1.604,1.415-3.251,2.587-4.94,3.519c1.104-1.828,2.268-3.733,3.492-5.717
				s2.458-3.949,3.699-5.898c1.242-1.948,2.458-3.854,3.648-5.717c1.189-1.862,2.31-3.604,3.363-5.225
				c1.051-1.621,2.009-3.079,2.87-4.372c0.862-1.293,1.587-2.354,2.174-3.182c-0.311-0.448-0.776-0.862-1.397-1.242
				c-0.517-0.311-1.208-0.595-2.069-0.854c-0.862-0.259-1.949-0.388-3.259-0.388c0.448,0.311,0.379,1.225-0.208,2.742
				c-0.587,1.518-1.5,3.406-2.742,5.665c-1.241,2.26-2.689,4.778-4.346,7.554c-1.655,2.777-3.312,5.588-4.967,8.434
				c-1.159,1.992-2.26,3.948-3.309,5.872h-2.797c0.69,0.448,0.966,1.147,0.829,2.096c-0.139,0.949-0.51,1.906-1.112,2.871
				c-0.604,0.967-1.328,1.812-2.173,2.536c-0.846,0.725-1.647,1.086-2.405,1.086c-0.657,0-1.054-0.207-1.191-0.621
				c1.138-1.345,2.199-2.75,3.183-4.217c0.982-1.465,1.801-2.879,2.457-4.242c0.654-1.362,1.121-2.639,1.396-3.828
				c0.276-1.19,0.293-2.19,0.052-3.001c-0.241-0.81-0.776-1.379-1.604-1.708c-0.827-0.328-2.001-0.336-3.518-0.026
				c-1.035-0.828-2.173-1.095-3.415-0.802c-1.242,0.293-2.509,0.957-3.803,1.992c-1.293,1.035-2.562,2.363-3.803,3.984
				c-0.948,1.238-1.819,2.532-2.617,3.88h-2.711c0.689,0.448,0.965,1.147,0.828,2.096c-0.139,0.949-0.511,1.906-1.112,2.871
				c-0.604,0.967-1.329,1.812-2.174,2.536c-0.845,0.725-1.647,1.086-2.406,1.086c-0.655,0-1.052-0.207-1.189-0.621
				c1.139-1.345,2.199-2.75,3.183-4.217c0.982-1.465,1.802-2.879,2.457-4.242c0.654-1.362,1.12-2.639,1.397-3.828
				c0.275-1.19,0.293-2.19,0.052-3.001c-0.242-0.81-0.776-1.379-1.604-1.708c-0.828-0.328-2.001-0.336-3.519-0.026
				c-1.034-0.828-2.172-1.095-3.414-0.802c-1.242,0.293-2.509,0.957-3.803,1.992s-2.562,2.363-3.804,3.984
				c-1.241,1.622-2.353,3.337-3.336,5.148c-0.983,1.811-1.802,3.63-2.458,5.458c-0.654,1.829-1.043,3.476-1.164,4.941
				c-0.087,1.062-0.006,1.975,0.231,2.747c-0.226,0.058-0.457,0.101-0.696,0.124c-1.087,0.104-2.276,0.035-3.57-0.207
				c-1.293-0.241-2.647-0.586-4.062-1.034s-2.863-0.828-4.346-1.139c-0.035-0.517,0.379-1.569,1.241-3.156
				c0.862-1.586,1.983-3.474,3.363-5.665c1.379-2.189,2.914-4.57,4.604-7.14c1.689-2.568,3.38-5.087,5.07-7.553
				c1.69-2.466,3.268-4.76,4.733-6.881c1.466-2.121,2.666-3.854,3.597-5.2c-0.414-0.448-0.931-0.862-1.553-1.242
				c-0.552-0.31-1.276-0.595-2.173-0.854c-0.897-0.259-2.001-0.388-3.311-0.388c0.414,0.31,0.422,1.018,0.025,2.121
				c-0.396,1.104-1.052,2.475-1.966,4.113c-0.914,1.639-2.01,3.475-3.285,5.51c-1.277,2.036-2.587,4.122-3.932,6.26
				c-1.346,2.139-2.631,4.251-3.855,6.338c-1.225,2.087-2.25,4.027-3.078,5.821c-0.828,1.794-1.38,3.363-1.655,4.708
				c-0.277,1.345-0.104,2.311,0.517,2.897c-1.034-0.138-2.052-0.198-3.052-0.181c-1.001,0.018-1.984,0.181-2.949,0.491
				c-0.966,0.311-1.906,0.785-2.819,1.423c-0.915,0.639-1.785,1.509-2.613,2.613c1.104-0.965,2.232-1.534,3.389-1.707
				C-588.597-95.048-587.424-94.997-586.235-94.721z M-536.334-109.647c1-1.327,1.975-2.518,2.923-3.57
				c0.948-1.052,1.854-1.888,2.716-2.509c0.862-0.621,1.605-0.931,2.227-0.931c-0.208,0.276-0.501,0.672-0.881,1.19
				c-0.38,0.517-0.775,1.13-1.189,1.836c-0.414,0.708-0.827,1.492-1.241,2.354c-0.415,0.863-0.76,1.777-1.035,2.742
				c-0.311,0.759-0.553,1.518-0.725,2.276c-0.173,0.656-0.303,1.363-0.388,2.122c-0.087,0.759-0.062,1.483,0.077,2.173
				c-0.655,1.035-1.336,2.018-2.043,2.949c-0.708,0.931-1.44,1.733-2.199,2.406c-0.76,0.672-1.519,1.208-2.276,1.604
				c-0.76,0.396-1.5,0.594-2.225,0.594c-0.587,0-0.905-0.318-0.957-0.957c-0.052-0.638,0.104-1.483,0.466-2.535
				s0.887-2.242,1.578-3.57c0.688-1.328,1.475-2.691,2.354-4.087C-538.274-106.957-537.334-108.318-536.334-109.647z
				 M-563.521-97.902c0.361-1.052,0.888-2.242,1.577-3.57s1.475-2.691,2.354-4.087c0.88-1.397,1.819-2.759,2.819-4.087
				c1-1.327,1.975-2.518,2.924-3.57c0.948-1.052,1.854-1.888,2.716-2.509s1.604-0.931,2.225-0.931
				c-0.206,0.276-0.5,0.672-0.879,1.19c-0.381,0.517-0.776,1.13-1.19,1.836c-0.414,0.708-0.827,1.492-1.242,2.354
				c-0.414,0.863-0.759,1.777-1.034,2.742c-0.311,0.759-0.552,1.518-0.725,2.276c-0.173,0.656-0.302,1.363-0.388,2.122
				c-0.087,0.759-0.061,1.483,0.077,2.173c-0.655,1.035-1.337,2.018-2.044,2.949s-1.439,1.733-2.198,2.406
				c-0.759,0.672-1.519,1.208-2.276,1.604c-0.759,0.396-1.5,0.594-2.225,0.594c-0.587,0-0.905-0.318-0.957-0.957
				C-564.04-96.005-563.884-96.85-563.521-97.902z"/>
			<path fill-rule="evenodd" clip-rule="evenodd" fill="#FFFFFF" d="M-484.563-105.426c0.787-0.904,1.543-1.944,2.268-3.119h-2.016
				c0.232,0.064,0.326,0.251,0.281,0.56c-0.047,0.31-0.186,0.676-0.418,1.101c-0.232,0.424-0.535,0.872-0.91,1.341
				c-0.375,0.47-0.777,0.909-1.211,1.314c-0.434,0.406-0.865,0.741-1.299,1.004c-0.432,0.264-0.822,0.396-1.172,0.396
				c-0.336,0-0.594-0.071-0.775-0.213c-0.18-0.142-0.293-0.339-0.338-0.59c-0.047-0.252-0.029-0.546,0.047-0.882
				c0.078-0.336,0.195-0.698,0.35-1.085h0.154c0.957-0.052,1.787-0.277,2.49-0.677c0.705-0.399,1.318-0.879,1.842-1.44
				c0.521-0.56,0.961-1.166,1.316-1.816c0.355-0.651,0.66-1.25,0.912-1.797c0.252-0.548,0.465-1.002,0.639-1.363
				c0.174-0.361,0.34-0.542,0.494-0.542c-0.633-0.18-1.16-0.167-1.578,0.039c-0.42,0.207-0.793,0.53-1.115,0.969
				c-0.658,0.026-1.305,0.184-1.938,0.475s-1.23,0.668-1.793,1.133c-0.562,0.465-1.072,0.996-1.531,1.59
				c-0.123,0.161-0.24,0.322-0.354,0.484h-1.129c0.232,0.064,0.35,0.245,0.35,0.542c0,0.297-0.084,0.646-0.252,1.046
				c-0.168,0.4-0.391,0.827-0.668,1.279c-0.279,0.452-0.586,0.87-0.922,1.25c-0.336,0.382-0.672,0.697-1.008,0.95
				c-0.334,0.252-0.639,0.377-0.91,0.377c-0.182,0-0.236-0.139-0.165-0.417c0.071-0.277,0.216-0.642,0.436-1.095
				c0.143-0.284,0.379-0.71,0.707-1.279c0.33-0.568,0.717-1.214,1.162-1.938c0.447-0.724,0.924-1.502,1.436-2.335
				c0.51-0.833,1.023-1.663,1.539-2.49c1.203-1.938,2.527-4.036,3.973-6.297c-0.115-0.168-0.289-0.323-0.523-0.465
				c-0.193-0.116-0.455-0.223-0.783-0.319c-0.33-0.097-0.74-0.146-1.23-0.146c0.141,0,0.184,0.129,0.125,0.387
				c-0.059,0.259-0.184,0.61-0.377,1.056c-0.195,0.446-0.449,0.969-0.766,1.57c-0.318,0.6-0.666,1.244-1.047,1.928
				c-0.381,0.686-0.781,1.395-1.201,2.131c-0.42,0.737-0.838,1.46-1.25,2.171c0-0.517-0.109-0.911-0.33-1.183
				c-0.412-0.464-0.861-0.688-1.346-0.668c-0.485,0.019-0.972,0.21-1.463,0.571c-0.491,0.362-0.969,0.85-1.434,1.463
				c-0.466,0.614-0.886,1.276-1.26,1.986c-0.375,0.71-0.688,1.431-0.94,2.161c-0.251,0.73-0.413,1.389-0.484,1.976
				c-0.07,0.588-0.035,1.07,0.106,1.444c0.143,0.375,0.427,0.562,0.854,0.562c0.477,0,0.949-0.158,1.414-0.474
				c0.465-0.317,0.924-0.721,1.376-1.212c-0.155,0.504-0.19,0.911-0.106,1.221c0.084,0.311,0.352,0.465,0.804,0.465
				c0.388,0,0.775-0.087,1.164-0.262c0.387-0.174,0.762-0.407,1.123-0.697s0.707-0.624,1.037-0.998
				c0.176-0.201,0.338-0.41,0.506-0.615c-0.037,0.381-0.02,0.733,0.055,1.051c0.111,0.459,0.348,0.828,0.709,1.105
				s0.885,0.417,1.568,0.417c0.428,0,0.854-0.087,1.279-0.262c0.426-0.174,0.846-0.407,1.26-0.697
				c0.412-0.291,0.811-0.624,1.191-0.998S-484.899-105.038-484.563-105.426z M-496.365-104.738c-0.362,0.498-0.724,0.911-1.085,1.24
				s-0.678,0.494-0.95,0.494c-0.271,0-0.377-0.219-0.319-0.659c0.059-0.438,0.217-0.985,0.475-1.637
				c0.258-0.652,0.594-1.346,1.008-2.083c0.413-0.736,0.849-1.404,1.308-2.005c0.459-0.601,0.904-1.069,1.338-1.405
				c0.432-0.336,0.803-0.426,1.113-0.271c0.115,0.065,0.184,0.19,0.203,0.378c0.02,0.187,0.004,0.41-0.047,0.668h-1.223
				c0.232,0.065,0.336,0.285,0.311,0.66c-0.025,0.374-0.135,0.82-0.33,1.336c-0.193,0.517-0.452,1.069-0.774,1.657
				C-495.661-105.777-496.003-105.235-496.365-104.738z M-488.604-107.693c0.381-0.582,0.781-1.13,1.201-1.647
				c0.42-0.516,0.84-0.976,1.26-1.376c0.42-0.4,0.805-0.698,1.152-0.891c-0.297,0.529-0.57,1.107-0.822,1.734
				c-0.252,0.627-0.533,1.218-0.844,1.773c-0.309,0.556-0.674,1.027-1.094,1.415s-0.939,0.607-1.561,0.658
				c-0.115,0-0.199,0.007-0.252,0.02C-489.306-106.549-488.985-107.112-488.604-107.693z"/>
			<path fill-rule="evenodd" clip-rule="evenodd" fill="#FFFFFF" d="M-602.83-98.633c0.55,0.424,1.346,0.635,2.39,0.635
				c0.648,0,1.298-0.133,1.947-0.399c0.648-0.266,1.287-0.619,1.918-1.062c0.629-0.443,1.233-0.949,1.813-1.52
				c0.268-0.262,0.524-0.527,0.776-0.792c-0.144,0.364-0.275,0.717-0.379,1.043c-0.156,0.501-0.225,0.935-0.207,1.298
				c0.021,0.364,0.13,0.654,0.325,0.871c0.197,0.216,0.522,0.324,0.975,0.324c0.589,0,1.181-0.133,1.771-0.398
				c0.589-0.266,1.16-0.619,1.71-1.062c0.552-0.443,1.077-0.949,1.579-1.52c0.502-0.571,0.979-1.15,1.432-1.741
				c1.022-1.376,1.996-2.96,2.922-4.75h-3.07c0.354,0.099,0.531,0.374,0.531,0.826c0,0.453-0.122,0.984-0.368,1.593
				c-0.247,0.61-0.586,1.259-1.018,1.948c-0.434,0.688-0.9,1.323-1.402,1.903c-0.502,0.581-1.008,1.062-1.521,1.446
				c-0.511,0.383-0.973,0.575-1.385,0.575c-0.276,0-0.37-0.216-0.281-0.649s0.319-0.984,0.693-1.653
				c1.869-3.382,3.536-6.274,5.001-8.674s2.7-4.406,3.704-6.02c1.003-1.613,1.76-2.886,2.271-3.821
				c0.513-0.934,0.753-1.643,0.724-2.125s-0.339-0.792-0.93-0.929c-0.59-0.138-1.484-0.207-2.686-0.207
				c0.237,0,0.301,0.241,0.192,0.723c-0.108,0.482-0.339,1.131-0.693,1.947c-0.354,0.816-0.802,1.766-1.342,2.847
				c-0.542,1.083-1.133,2.213-1.771,3.394c-0.64,1.18-1.294,2.375-1.962,3.585c-0.669,1.21-1.304,2.36-1.903,3.452
				c-0.014,0.025-0.026,0.048-0.04,0.073h-1.626c0.354,0.098,0.495,0.383,0.427,0.853c-0.068,0.471-0.28,1.029-0.634,1.676
				s-0.817,1.328-1.387,2.043c-0.572,0.715-1.186,1.382-1.845,2c-0.659,0.618-1.317,1.127-1.977,1.529
				c-0.659,0.402-1.254,0.603-1.784,0.603c-0.512,0-0.906-0.108-1.181-0.325c-0.275-0.216-0.448-0.517-0.517-0.899
				c-0.069-0.384-0.045-0.831,0.074-1.343c0.117-0.512,0.294-1.062,0.531-1.652h0.235c1.456-0.079,2.719-0.422,3.792-1.03
				c1.071-0.608,2.006-1.339,2.803-2.192s1.465-1.776,2.007-2.767c0.54-0.991,1.003-1.904,1.386-2.737
				c0.384-0.833,0.708-1.525,0.975-2.075c0.265-0.55,0.516-0.825,0.752-0.825c-0.965-0.274-1.767-0.255-2.404,0.06
				c-0.641,0.314-1.205,0.807-1.697,1.475c-1.003,0.04-1.986,0.28-2.951,0.723c-0.964,0.442-1.873,1.018-2.728,1.726
				c-0.856,0.708-1.634,1.515-2.332,2.419c-0.698,0.905-1.273,1.825-1.726,2.759c-0.453,0.934-0.772,1.849-0.96,2.744
				c-0.187,0.896-0.196,1.692-0.029,2.39C-603.74-99.616-603.381-99.056-602.83-98.633z M-599.275-106.171
				c0.58-0.886,1.19-1.721,1.83-2.509c0.639-0.786,1.278-1.485,1.917-2.095c0.639-0.609,1.225-1.062,1.756-1.357
				c-0.453,0.807-0.871,1.687-1.253,2.641c-0.385,0.954-0.812,1.854-1.284,2.7c-0.473,0.846-1.028,1.564-1.668,2.154
				c-0.639,0.59-1.431,0.925-2.375,1.003c-0.177,0-0.306,0.01-0.384,0.029C-600.342-104.431-599.855-105.287-599.275-106.171z"/>
			<g>
				<path fill-rule="evenodd" clip-rule="evenodd" fill="#FFFFFF" d="M-417.442-103.007h0.355c2.189-0.118,4.09-0.634,5.701-1.548
					c1.613-0.915,3.018-2.014,4.215-3.298c1.199-1.283,2.203-2.67,3.018-4.16c0.812-1.49,1.51-2.862,2.086-4.116
					c0.576-1.253,1.064-2.293,1.465-3.119c0.398-0.828,0.775-1.241,1.131-1.241c-1.449-0.414-2.656-0.383-3.615,0.089
					c-0.963,0.474-1.812,1.213-2.551,2.218c-1.51,0.06-2.99,0.422-4.439,1.087c-1.449,0.666-2.816,1.53-4.104,2.596
					c-1.287,1.064-2.455,2.278-3.506,3.638c-0.482,0.626-0.922,1.258-1.328,1.894h-1.908c0.57,0.159,0.855,0.602,0.855,1.331
					c0,0.187-0.014,0.384-0.039,0.588c-0.059,0.112-0.121,0.224-0.176,0.335c-0.584,1.207-1.012,2.39-1.301,3.553
					c-0.221,0.401-0.455,0.808-0.719,1.227c-0.697,1.11-1.449,2.131-2.256,3.065c-0.809,0.935-1.625,1.711-2.449,2.329
					c-0.824,0.618-1.568,0.927-2.232,0.927c-0.443,0-0.594-0.348-0.453-1.045c0.145-0.697,0.516-1.583,1.117-2.662
					c3.012-5.449,5.695-10.106,8.057-13.972c2.359-3.865,4.348-7.097,5.965-9.695c1.615-2.598,2.834-4.649,3.66-6.155
					c0.822-1.505,1.211-2.646,1.162-3.422c-0.045-0.776-0.545-1.275-1.496-1.497s-2.393-0.333-4.324-0.333
					c0.381,0,0.482,0.388,0.309,1.164c-0.174,0.777-0.547,1.822-1.117,3.137c-0.57,1.315-1.291,2.844-2.162,4.586
					c-0.873,1.743-1.822,3.564-2.852,5.465c-1.031,1.901-2.084,3.826-3.16,5.774c-1.025,1.854-1.998,3.618-2.922,5.3h-2.496
					c0.57,0.159,0.822,0.602,0.76,1.331c-0.064,0.729-0.342,1.585-0.832,2.566c-0.49,0.982-1.141,2.028-1.947,3.137
					c-0.809,1.11-1.656,2.131-2.543,3.065c-0.889,0.935-1.775,1.711-2.662,2.329c-0.887,0.618-1.664,0.927-2.328,0.927
					c-0.381,0-0.523-0.285-0.428-0.855c0.096-0.571,0.355-1.314,0.783-2.234c0.428-0.918,0.99-1.979,1.688-3.184
					c0.697-1.203,1.426-2.424,2.188-3.66c1.805-2.915,4.006-6.226,6.605-9.933c-0.287-0.411-0.713-0.792-1.283-1.14
					c-0.477-0.286-1.109-0.547-1.902-0.784c-0.793-0.238-1.789-0.357-2.994-0.357c0.602,0,0.855,0.341,0.762,1.022
					c-0.096,0.682-0.404,1.592-0.928,2.733c-0.521,1.14-1.188,2.431-1.996,3.873c-0.215,0.385-0.434,0.776-0.65,1.165h-2.604
					c0.57,0.19,0.832,0.665,0.783,1.425c-0.047,0.761-0.285,1.648-0.713,2.662c-0.428,1.015-0.998,2.091-1.711,3.232
					c-0.713,1.14-1.473,2.186-2.281,3.136c-0.807,0.951-1.607,1.735-2.4,2.353c-0.791,0.618-1.473,0.927-2.043,0.927
					c-0.412,0-0.588-0.285-0.523-0.855s0.293-1.323,0.689-2.257c0.396-0.934,0.928-2.003,1.592-3.208
					c0.666-1.204,1.395-2.432,2.188-3.684c0.791-1.251,1.598-2.479,2.424-3.683c0.822-1.205,1.598-2.273,2.328-3.208
					c0.729-0.934,1.369-1.688,1.926-2.257c0.553-0.57,0.957-0.855,1.211-0.855c-0.096-0.253-0.246-0.539-0.451-0.855
					c-0.207-0.317-0.484-0.61-0.832-0.88c-0.35-0.268-0.744-0.505-1.188-0.712c-0.445-0.206-0.951-0.324-1.521-0.357
					c-0.793-0.031-1.672,0.238-2.637,0.809c-0.969,0.57-1.959,1.339-2.971,2.305c-1.014,0.967-2.045,2.067-3.09,3.303
					s-2.043,2.519-2.994,3.85c1.521-2.502,3.121-5.093,4.801-7.77c1.678-2.677,3.303-5.236,4.871-7.676s3.01-4.649,4.324-6.63
					c1.314-1.98,2.354-3.524,3.113-4.634c-0.285-0.412-0.713-0.792-1.283-1.14c-0.475-0.286-1.109-0.547-1.9-0.785
					c-0.793-0.237-1.791-0.357-2.994-0.357c0.41,0.286,0.348,1.125-0.189,2.519c-0.541,1.395-1.379,3.129-2.52,5.204
					c-1.141,2.076-2.473,4.39-3.992,6.939c-1.521,2.551-3.041,5.132-4.562,7.747c-1.334,2.292-2.59,4.533-3.777,6.727h-4.439
					c0.641,0.179,0.898,0.686,0.773,1.521c-0.125,0.837-0.498,1.833-1.119,2.988c-0.623,1.157-1.459,2.393-2.508,3.708
					c-1.051,1.316-2.188,2.516-3.414,3.601c-1.227,1.085-2.473,1.992-3.734,2.722c-1.264,0.729-2.445,1.093-3.549,1.093
					c-1.742,0-2.891-0.64-3.441-1.921s-0.666-2.952-0.346-5.015c0.32-2.062,1.004-4.383,2.055-6.962
					c1.047-2.578,2.301-5.184,3.76-7.816c1.459-2.631,3.059-5.139,4.801-7.522c1.744-2.383,3.459-4.419,5.15-6.109
					c1.688-1.689,3.289-2.889,4.801-3.602c1.512-0.711,2.783-0.693,3.814,0.054c-1.031,1.174-2.027,2.561-2.988,4.161
					c-0.959,1.601-1.885,3.254-2.773,4.962c-0.891,1.708-1.752,3.396-2.588,5.068s-1.645,3.174-2.428,4.508
					c-0.783,1.333-1.52,2.419-2.213,3.254c-0.695,0.836-1.344,1.272-1.947,1.307c1.6,0.213,3.209-0.275,4.828-1.467
					c1.617-1.191,3.174-2.756,4.668-4.695c1.494-1.938,2.916-4.063,4.268-6.376c1.352-2.312,2.588-4.472,3.709-6.482
					c1.119-2.009,2.08-3.689,2.881-5.042c0.799-1.351,1.414-2.027,1.84-2.027c-1.139-0.534-2.25-0.595-3.334-0.187
					c-1.086,0.409-2.145,1.146-3.176,2.214c-1.279-1.565-2.711-2.445-4.293-2.641c-1.584-0.195-3.229,0.107-4.936,0.907
					s-3.424,2.037-5.148,3.708c-1.725,1.672-3.379,3.593-4.963,5.762c-1.582,2.17-3.039,4.5-4.373,6.989s-2.455,4.979-3.361,7.468
					c-0.908,2.491-1.557,4.882-1.947,7.176c-0.393,2.294-0.445,4.321-0.16,6.082c0.283,1.761,0.969,3.166,2.055,4.215
					c1.082,1.049,2.656,1.574,4.721,1.574c1.279,0,2.551-0.249,3.814-0.748c1.262-0.498,2.48-1.146,3.654-1.947
					c1.174-0.801,2.303-1.716,3.387-2.749c1.086-1.03,2.109-2.08,3.068-3.147c0.734-0.83,1.455-1.705,2.162-2.618
					c-0.234,0.539-0.449,1.059-0.643,1.559c-0.744,1.917-1.109,3.461-1.094,4.633c0.016,1.173,0.627,1.759,1.83,1.759
					c-0.379,0-0.277-0.657,0.309-1.972c0.588-1.315,1.467-3.05,2.639-5.205c1.172-1.774,2.455-3.564,3.85-5.371
					c1.393-1.806,2.756-3.438,4.086-4.895c1.332-1.457,2.535-2.645,3.611-3.564c1.078-0.918,1.885-1.378,2.426-1.378
					c-3.17,4.183-5.641,7.921-7.414,11.216c-0.762,1.394-1.41,2.764-1.949,4.11c-0.539,1.347-0.855,2.543-0.951,3.589
					c-0.094,1.045,0.104,1.885,0.594,2.519c0.492,0.634,1.387,0.95,2.688,0.95c0.791,0,1.607-0.214,2.447-0.642
					c0.838-0.428,1.662-0.998,2.471-1.711c0.48-0.423,0.953-0.887,1.42-1.383c-0.295,1.132-0.326,2.037-0.09,2.713
					c0.238,0.682,0.879,1.022,1.924,1.022c0.951,0,1.918-0.214,2.9-0.642c0.98-0.428,1.947-0.998,2.898-1.711
					s1.869-1.528,2.758-2.448c0.121-0.126,0.234-0.255,0.355-0.382c-0.152,0.403-0.287,0.793-0.404,1.167
					c-0.254,0.808-0.363,1.505-0.332,2.091c0.031,0.587,0.205,1.054,0.521,1.402c0.318,0.349,0.84,0.523,1.568,0.523
					c0.951,0,1.902-0.214,2.852-0.642c0.951-0.428,1.869-0.998,2.758-1.711c0.885-0.713,1.734-1.528,2.543-2.448
					c0.371-0.423,0.73-0.849,1.086-1.278c0.029,0.274,0.074,0.541,0.137,0.798c0.25,1.05,0.791,1.893,1.619,2.529
					c0.826,0.636,2.025,0.954,3.594,0.954c0.975,0,1.951-0.2,2.928-0.599c0.977-0.399,1.938-0.932,2.885-1.598
					c0.945-0.666,1.855-1.426,2.729-2.285c0.871-0.858,1.691-1.73,2.461-2.618c1.805-2.07,3.535-4.452,5.191-7.144h-4.613
					c0.533,0.148,0.746,0.575,0.645,1.283c-0.105,0.708-0.422,1.548-0.955,2.521s-1.229,1.997-2.086,3.072
					c-0.857,1.076-1.781,2.079-2.773,3.007c-0.99,0.929-1.98,1.696-2.971,2.3c-0.992,0.604-1.887,0.907-2.686,0.907
					c-0.77,0-1.361-0.163-1.775-0.489c-0.414-0.325-0.672-0.776-0.775-1.353c-0.105-0.577-0.068-1.249,0.109-2.019
					C-418.063-101.291-417.798-102.12-417.442-103.007z M-412.05-111.57c0.961-1.183,1.922-2.233,2.883-3.15
					s1.842-1.597,2.641-2.041c-0.682,1.213-1.309,2.537-1.887,3.971c-0.576,1.435-1.219,2.788-1.93,4.06
					c-0.709,1.272-1.547,2.352-2.506,3.239c-0.963,0.887-2.152,1.39-3.572,1.508c-0.268,0-0.459,0.016-0.578,0.044
					c0.592-1.242,1.324-2.529,2.197-3.86C-413.929-109.13-413.013-110.386-412.05-111.57z"/>
				<path fill-rule="evenodd" clip-rule="evenodd" fill="#FFFFFF" d="M-433.218-119.65c-0.09,0.118-0.18,0.234-0.279,0.362
					c0.031-0.008,0.047-0.013,0.064-0.018c1.102-0.325,2.203-0.651,3.303-0.978c0.043-0.012,0.066-0.006,0.09,0.031
					c0.652,0.951,1.305,1.899,1.957,2.849c0.01,0.013,0.02,0.025,0.033,0.045c0.002-0.025,0.002-0.04,0.004-0.055
					c0.031-1.153,0.061-2.306,0.09-3.458c0.002-0.042,0.016-0.058,0.055-0.069c1.1-0.324,2.199-0.649,3.301-0.975
					c0.014-0.004,0.031-0.01,0.045-0.015c0-0.004,0-0.007,0-0.01c-0.02-0.008-0.041-0.015-0.059-0.021
					c-1.078-0.382-2.152-0.763-3.229-1.145c-0.033-0.012-0.055-0.019-0.053-0.065c0.029-1.04,0.055-2.079,0.084-3.118
					c0.004-0.132,0.006-0.263,0.01-0.403c-0.018,0.02-0.027,0.033-0.039,0.046c-0.699,0.912-1.402,1.824-2.102,2.736
					c-0.027,0.038-0.051,0.042-0.092,0.027c-1.078-0.384-2.156-0.766-3.234-1.148c-0.02-0.007-0.039-0.012-0.072-0.022
					c0.02,0.028,0.029,0.044,0.039,0.059c0.65,0.945,1.301,1.891,1.949,2.835c0.021,0.03,0.027,0.05,0.002,0.084
					C-431.974-121.269-432.597-120.459-433.218-119.65z"/>
			</g>
		</g>
		<g>
			<g>
				<path fill="#FFFFFF" d="M-488.761-78.756c-0.691-1.373-0.521-2.487,0.516-3.343c1.035-0.856,2.684-1.526,4.945-2.009
					c2.264-0.483,5.031-0.815,8.311-0.999c3.277-0.183,6.828-0.274,10.65-0.275c3.824-0.001,7.807,0.053,11.951,0.164
					c4.143,0.108,8.217,0.207,12.223,0.295c4.004,0.087,7.816,0.129,11.43,0.124c3.617-0.006,6.809-0.123,9.576-0.352
					c2.768-0.23,5-0.603,6.697-1.115c1.695-0.514,2.621-1.228,2.773-2.142c-0.072,0.911-0.848,1.701-2.332,2.37
					c-1.482,0.669-3.473,1.244-5.967,1.723c-2.496,0.479-5.395,0.879-8.693,1.201c-3.301,0.321-6.814,0.591-10.547,0.807
					c-3.73,0.216-7.559,0.396-11.486,0.539c-3.926,0.142-7.762,0.274-11.512,0.395c-3.748,0.121-7.305,0.247-10.668,0.378
					c-3.363,0.132-6.332,0.288-8.91,0.469c-2.576,0.18-4.664,0.415-6.26,0.704S-488.558-79.177-488.761-78.756z"/>
			</g>
			<g>
				<path fill="#FFFFFF" d="M-513.123-79.221c0.623-1.397,0.417-2.505-0.619-3.322c-1.035-0.817-2.658-1.426-4.87-1.824
					c-2.213-0.399-4.912-0.629-8.1-0.69c-3.188-0.062-6.637-0.022-10.347,0.118c-3.711,0.141-7.572,0.343-11.59,0.606
					c-4.018,0.261-7.967,0.51-11.852,0.747c-3.882,0.235-7.58,0.418-11.089,0.547c-3.509,0.128-6.61,0.128-9.305,0.002
					c-2.693-0.128-4.872-0.417-6.537-0.867c-1.664-0.452-2.588-1.13-2.769-2.038c0.103,0.907,0.885,1.668,2.346,2.283
					c1.465,0.613,3.417,1.114,5.854,1.5c2.439,0.387,5.267,0.679,8.479,0.879c3.213,0.199,6.635,0.339,10.262,0.417
					c3.629,0.078,7.35,0.116,11.167,0.113c3.814-0.003,7.543-0.014,11.187-0.031c3.64-0.018,7.096-0.023,10.363-0.016
					c3.27,0.008,6.156,0.053,8.663,0.139c2.508,0.084,4.543,0.242,6.1,0.471C-514.219-79.956-513.333-79.634-513.123-79.221z"/>
			</g>
			<path fill-rule="evenodd" clip-rule="evenodd" fill="#FFFFFF" d="M-504.069-77.528c-0.058,0.18-0.117,0.356-0.184,0.552
				c0.034-0.022,0.053-0.036,0.069-0.048c1.189-0.85,2.38-1.701,3.567-2.552c0.047-0.032,0.078-0.035,0.122,0
				c1.18,0.873,2.359,1.742,3.539,2.612c0.018,0.012,0.034,0.023,0.06,0.04c-0.009-0.03-0.015-0.048-0.02-0.067
				c-0.442-1.4-0.888-2.8-1.332-4.199c-0.015-0.05-0.006-0.075,0.037-0.106c1.188-0.847,2.376-1.697,3.564-2.546
				c0.018-0.011,0.033-0.026,0.047-0.038c0-0.005-0.002-0.008-0.002-0.012c-0.027-0.001-0.057-0.001-0.082-0.001
				c-1.454-0.011-2.906-0.022-4.358-0.033c-0.045,0-0.075,0-0.093-0.056c-0.396-1.264-0.799-2.524-1.197-3.786
				c-0.05-0.161-0.101-0.32-0.155-0.488c-0.013,0.03-0.021,0.051-0.026,0.071c-0.464,1.388-0.927,2.779-1.391,4.167
				c-0.018,0.057-0.042,0.072-0.099,0.071c-1.458-0.012-2.913-0.022-4.371-0.035c-0.025,0-0.052,0.002-0.093,0.003
				c0.033,0.025,0.053,0.041,0.069,0.054c1.176,0.867,2.352,1.733,3.526,2.599c0.039,0.028,0.054,0.05,0.037,0.101
				C-503.247-79.994-503.656-78.76-504.069-77.528z"/>
		</g>
	</g>
	<g>
		<path fill="#FFFFFF" d="M-501.363-93.696c-0.332,0.219-0.644,0.271-0.934,0.157s-0.521-0.335-0.692-0.661
			c-0.173-0.326-0.276-0.733-0.312-1.222c-0.035-0.489,0.027-1.003,0.187-1.543c0.16-0.54,0.434-1.076,0.818-1.608
			c0.386-0.532,0.913-1.004,1.582-1.417s1.496-0.738,2.479-0.977c0.984-0.239,2.151-0.335,3.502-0.289
			c1.509,0.052,2.796,0.117,3.865,0.195c1.066,0.079,1.98,0.145,2.746,0.196c0.762,0.053,1.414,0.078,1.955,0.075
			c0.539-0.002,1.031-0.064,1.477-0.186c0.207,0.679,0.246,1.16,0.115,1.444c-0.131,0.284-0.396,0.432-0.801,0.444
			c-0.404,0.012-0.932-0.069-1.58-0.243c-0.65-0.174-1.389-0.373-2.215-0.596c-0.826-0.222-1.729-0.434-2.707-0.635
			c-0.979-0.201-2.002-0.32-3.071-0.357c-0.984-0.034-1.849,0.042-2.595,0.226c-0.746,0.185-1.387,0.438-1.922,0.76
			c-0.536,0.322-0.973,0.696-1.313,1.119c-0.339,0.423-0.605,0.862-0.8,1.317c-0.193,0.455-0.319,0.901-0.375,1.34
			c-0.058,0.439-0.069,0.836-0.034,1.194c0.035,0.357,0.108,0.651,0.222,0.88C-501.653-93.85-501.519-93.722-501.363-93.696z"/>
	</g>
</g>
<g>
	<g>
		<g>
			<path fill-rule="evenodd" clip-rule="evenodd" fill="#FFFFFF" d="M24.633,62.179c1.647,0.383,3.308,0.967,4.979,1.755
				c1.672,0.788,3.356,1.541,5.052,2.257c1.693,0.716,3.367,1.3,5.014,1.755c1.647,0.453,3.283,0.548,4.908,0.286
				c1.623-0.262,3.199-1.015,4.728-2.256c0.771-0.626,1.527-1.435,2.274-2.425c0.732,0.896,1.857,1.351,3.383,1.351
				c1.146,0,2.377-0.251,3.691-0.752c1.312-0.502,2.649-1.194,4.01-2.078s2.724-1.922,4.084-3.116
				c1.359-1.193,2.685-2.482,3.975-3.868c0.671,0.383,1.528,0.573,2.58,0.573c1.003,0,1.979-0.19,2.937-0.573
				c0.955-0.382,1.874-0.896,2.759-1.54c0.257-0.188,0.503-0.401,0.754-0.605c-0.562,1.854-0.914,3.561-1.041,5.119
				c-0.167,2.03,0.095,3.678,0.787,4.943c0.692,1.266,1.947,1.898,3.759,1.898c1.149,0,2.377-0.251,3.688-0.752
				c1.314-0.502,2.653-1.194,4.014-2.078c1.363-0.883,2.723-1.922,4.083-3.116c1.36-1.193,2.686-2.482,3.976-3.868
				c0.668,0.383,1.527,0.573,2.58,0.573c1.003,0,1.981-0.19,2.937-0.573c0.954-0.382,1.874-0.896,2.759-1.54
				c0.019-0.014,0.035-0.031,0.054-0.044c-0.257,0.6-0.511,1.196-0.735,1.763c-1.146,2.89-1.696,5.218-1.65,6.984
				c0.049,1.767,0.958,2.651,2.724,2.651c-0.382,0-0.43-0.454-0.144-1.362c0.287-0.907,0.825-2.16,1.612-3.761
				c0.789-1.6,1.793-3.485,3.01-5.66c1.217-2.172,2.566-4.523,4.045-7.055c1.05-0.382,2.104-0.763,3.153-1.146
				c1.05-0.381,2.102-0.811,3.153-1.29c0,0.813-0.265,1.887-0.79,3.224c-0.524,1.338-1.133,2.747-1.825,4.227
				c-0.694,1.481-1.35,2.985-1.972,4.513c-0.619,1.529-0.979,2.914-1.073,4.155c-0.097,1.243,0.154,2.245,0.752,3.008
				c0.595,0.765,1.779,1.147,3.545,1.147c1.434,0,2.867-0.323,4.3-0.968c1.434-0.645,2.815-1.504,4.154-2.579
				c1.336-1.074,2.615-2.304,3.834-3.689c1.217-1.385,2.375-2.793,3.473-4.227c2.485-3.342,4.846-7.187,7.093-11.533h-7.45
				c0.86,0.239,1.29,0.908,1.29,2.006c0,1.099-0.3,2.389-0.897,3.869c-0.595,1.48-1.42,3.056-2.469,4.727
				c-1.053,1.673-2.188,3.212-3.405,4.622c-1.217,1.408-2.447,2.578-3.688,3.509c-1.244,0.932-2.363,1.396-3.366,1.396
				c-0.573,0-0.934-0.226-1.074-0.68c-0.144-0.454-0.132-1.038,0.035-1.755c0.165-0.717,0.466-1.54,0.896-2.471
				c0.43-0.932,0.906-1.874,1.431-2.83c1.243-2.292,2.866-4.872,4.873-7.737c-0.287-0.381-0.671-0.764-1.146-1.146
				c-0.431-0.334-0.979-0.669-1.647-1.003c-0.668-0.333-1.503-0.621-2.507-0.86c2.15-1.05,4.189-2.161,6.122-3.332
				c1.937-1.169,3.63-2.351,5.09-3.545c1.455-1.193,2.615-2.364,3.475-3.51c0.857-1.146,1.312-2.173,1.36-3.081
				c0.046-0.907-0.384-1.683-1.29-2.328c-0.905-0.644-2.412-1.086-4.513-1.325c0.191,0.43-0.192,1.409-1.146,2.937
				c-0.955,1.528-2.27,3.236-3.94,5.122c-1.671,1.887-3.618,3.81-5.839,5.767c-2.22,1.959-4.502,3.582-6.841,4.872
				c1.53-2.531,3.139-5.169,4.835-7.916c1.695-2.746,3.404-5.468,5.122-8.167c1.72-2.697,3.404-5.336,5.051-7.916
				c1.647-2.578,3.199-4.989,4.657-7.234c1.454-2.244,2.782-4.263,3.975-6.053c1.192-1.791,2.196-3.259,3.01-4.405
				c-0.43-0.62-1.076-1.193-1.936-1.719c-0.714-0.43-1.672-0.824-2.864-1.182C138.017,0.179,136.513,0,134.698,0
				c0.622,0.43,0.525,1.695-0.286,3.797c-0.814,2.102-2.077,4.716-3.797,7.843c-1.72,3.129-3.724,6.616-6.017,10.459
				c-2.293,3.845-4.587,7.737-6.877,11.677c-1.606,2.758-3.129,5.466-4.581,8.13h-3.873c0.955,0.621,1.336,1.589,1.147,2.902
				c-0.192,1.313-0.706,2.639-1.539,3.975c-0.839,1.338-1.839,2.508-3.01,3.511s-2.28,1.504-3.329,1.504
				c-0.911,0-1.46-0.287-1.649-0.86c1.574-1.862,3.045-3.807,4.405-5.838c1.36-2.028,2.493-3.986,3.401-5.874
				c0.906-1.886,1.553-3.653,1.934-5.3c0.385-1.647,0.406-3.032,0.073-4.155c-0.335-1.122-1.076-1.91-2.22-2.364
				c-1.146-0.454-2.772-0.466-4.871-0.036c-1.433-1.146-3.01-1.516-4.729-1.11c-1.72,0.407-3.472,1.325-5.265,2.758
				c-1.791,1.433-3.546,3.272-5.266,5.516c-1.312,1.714-2.518,3.506-3.624,5.373h-3.753c0.954,0.621,1.336,1.589,1.146,2.902
				c-0.192,1.313-0.706,2.639-1.539,3.975c-0.838,1.338-1.842,2.508-3.01,3.511c-1.171,1.003-2.282,1.504-3.331,1.504
				c-0.909,0-1.458-0.287-1.647-0.86c1.577-1.862,3.045-3.807,4.405-5.838c1.36-2.028,2.496-3.986,3.402-5.874
				c0.905-1.886,1.552-3.653,1.937-5.3c0.381-1.647,0.405-3.032,0.07-4.155c-0.336-1.122-1.074-1.91-2.221-2.364
				c-1.146-0.454-2.771-0.466-4.873-0.036c-1.431-1.146-3.007-1.516-4.727-1.11c-1.721,0.407-3.473,1.325-5.266,2.758
				c-1.79,1.433-3.545,3.272-5.266,5.516c-1.72,2.245-3.258,4.62-4.618,7.127c-1.363,2.507-2.496,5.027-3.405,7.557
				c-0.905,2.532-1.443,4.812-1.611,6.842c-0.119,1.471-0.008,2.734,0.322,3.804c-0.314,0.08-0.633,0.14-0.966,0.171
				c-1.504,0.144-3.15,0.048-4.943-0.287c-1.79-0.333-3.664-0.811-5.622-1.432s-3.965-1.146-6.018-1.577
				c-0.048-0.716,0.525-2.173,1.718-4.37c1.195-2.196,2.747-4.81,4.656-7.844c1.909-3.031,4.035-6.327,6.377-9.886
				c2.339-3.556,4.679-7.043,7.021-10.458c2.339-3.414,4.523-6.59,6.552-9.528c2.031-2.937,3.691-5.337,4.981-7.199
				c-0.573-0.62-1.29-1.193-2.149-1.719c-0.766-0.43-1.769-0.824-3.01-1.182s-2.77-0.537-4.584-0.537
				c0.573,0.429,0.584,1.409,0.035,2.937s-1.455,3.427-2.721,5.695c-1.266,2.269-2.782,4.812-4.548,7.629
				c-1.77,2.818-3.584,5.707-5.444,8.667c-1.863,2.962-3.643,5.887-5.338,8.775c-1.695,2.89-3.115,5.576-4.262,8.06
				c-1.146,2.484-1.912,4.657-2.294,6.519c-0.384,1.862-0.143,3.2,0.717,4.012c-1.433-0.191-2.842-0.274-4.227-0.251
				c-1.385,0.025-2.747,0.251-4.083,0.68c-1.336,0.43-2.64,1.086-3.902,1.97c-1.269,0.884-2.472,2.089-3.618,3.617
				c1.527-1.336,3.091-2.124,4.691-2.363C21.361,61.725,22.986,61.797,24.633,62.179z M93.724,41.512
				c1.385-1.837,2.734-3.486,4.046-4.943c1.314-1.456,2.569-2.614,3.762-3.474s2.223-1.289,3.083-1.289
				c-0.29,0.382-0.695,0.931-1.22,1.647c-0.527,0.716-1.073,1.564-1.647,2.542c-0.573,0.979-1.146,2.066-1.72,3.259
				c-0.573,1.195-1.052,2.46-1.433,3.797c-0.431,1.051-0.766,2.102-1.004,3.152c-0.238,0.908-0.419,1.888-0.535,2.938
				c-0.122,1.051-0.087,2.053,0.105,3.008c-0.906,1.433-1.85,2.794-2.829,4.083c-0.979,1.289-1.993,2.399-3.045,3.331
				c-1.052,0.931-2.101,1.672-3.15,2.221c-1.052,0.549-2.076,0.823-3.08,0.823c-0.813,0-1.255-0.44-1.325-1.324
				c-0.072-0.884,0.144-2.053,0.644-3.51c0.503-1.457,1.229-3.104,2.186-4.943c0.954-1.838,2.042-3.726,3.259-5.659
				C91.039,45.237,92.339,43.352,93.724,41.512z M56.081,57.773c0.5-1.457,1.23-3.104,2.185-4.943
				c0.955-1.838,2.042-3.726,3.259-5.659c1.22-1.935,2.521-3.82,3.905-5.659c1.384-1.837,2.733-3.486,4.048-4.943
				c1.312-1.456,2.566-2.614,3.759-3.474c1.195-0.86,2.224-1.289,3.08-1.289c-0.283,0.382-0.692,0.931-1.217,1.647
				c-0.527,0.716-1.073,1.564-1.646,2.542c-0.573,0.979-1.146,2.066-1.72,3.259c-0.573,1.195-1.053,2.46-1.434,3.797
				c-0.43,1.051-0.763,2.102-1.003,3.152c-0.238,0.908-0.417,1.888-0.536,2.938c-0.121,1.051-0.084,2.053,0.105,3.008
				c-0.905,1.433-1.85,2.794-2.828,4.083c-0.979,1.289-1.993,2.399-3.045,3.331c-1.05,0.931-2.102,1.672-3.15,2.221
				c-1.053,0.549-2.077,0.823-3.08,0.823c-0.814,0-1.255-0.44-1.325-1.324C55.364,60.4,55.578,59.23,56.081,57.773z"/>
			<path fill-rule="evenodd" clip-rule="evenodd" fill="#FFFFFF" d="M165.404,47.357c1.09-1.251,2.136-2.691,3.14-4.319h-2.791
				c0.322,0.088,0.451,0.347,0.39,0.775c-0.065,0.428-0.257,0.936-0.579,1.524c-0.321,0.587-0.741,1.208-1.26,1.857
				c-0.52,0.651-1.076,1.258-1.677,1.819c-0.601,0.562-1.198,1.026-1.799,1.391c-0.598,0.365-1.138,0.548-1.622,0.548
				c-0.465,0-0.822-0.098-1.074-0.295c-0.248-0.196-0.405-0.469-0.468-0.817c-0.064-0.35-0.04-0.756,0.065-1.221
				c0.108-0.466,0.271-0.966,0.484-1.503h0.213c1.325-0.072,2.475-0.383,3.448-0.937c0.977-0.552,1.825-1.217,2.55-1.994
				c0.723-0.775,1.331-1.614,1.823-2.515c0.492-0.902,0.914-1.73,1.263-2.488c0.349-0.759,0.644-1.387,0.884-1.888
				c0.241-0.5,0.471-0.75,0.685-0.75c-0.876-0.25-1.606-0.231-2.186,0.054c-0.581,0.286-1.098,0.734-1.544,1.342
				c-0.911,0.036-1.806,0.254-2.683,0.657c-0.876,0.403-1.703,0.925-2.482,1.569c-0.778,0.645-1.484,1.378-2.12,2.201
				c-0.17,0.223-0.332,0.446-0.489,0.671h-1.562c0.321,0.088,0.483,0.339,0.483,0.751c0,0.411-0.116,0.895-0.349,1.448
				c-0.232,0.554-0.541,1.145-0.925,1.771c-0.387,0.626-0.812,1.204-1.276,1.731c-0.465,0.528-0.931,0.965-1.396,1.315
				c-0.462,0.349-0.884,0.522-1.259,0.522c-0.252,0-0.327-0.192-0.23-0.577c0.101-0.384,0.301-0.889,0.605-1.516
				c0.197-0.394,0.524-0.984,0.979-1.771c0.457-0.787,0.992-1.681,1.609-2.683c0.619-1.002,1.278-2.08,1.987-3.233
				c0.706-1.153,1.417-2.303,2.131-3.448c1.666-2.683,3.499-5.588,5.5-8.719c-0.159-0.233-0.399-0.447-0.725-0.645
				c-0.268-0.161-0.63-0.308-1.084-0.442c-0.457-0.135-1.025-0.202-1.704-0.202c0.195,0,0.255,0.179,0.174,0.536
				c-0.082,0.358-0.255,0.845-0.522,1.462c-0.271,0.618-0.622,1.342-1.06,2.174c-0.441,0.831-0.923,1.722-1.45,2.669
				c-0.527,0.949-1.081,1.931-1.663,2.951c-0.581,1.021-1.16,2.022-1.73,3.006c0-0.715-0.151-1.261-0.457-1.637
				c-0.57-0.643-1.192-0.952-1.863-0.925c-0.672,0.026-1.346,0.291-2.026,0.791c-0.679,0.501-1.342,1.176-1.985,2.026
				c-0.644,0.85-1.225,1.767-1.744,2.75c-0.52,0.983-0.952,1.981-1.301,2.991c-0.349,1.011-0.573,1.923-0.671,2.736
				c-0.097,0.814-0.049,1.481,0.146,2c0.197,0.519,0.592,0.778,1.182,0.778c0.659,0,1.314-0.219,1.958-0.657
				c0.644-0.438,1.279-0.998,1.906-1.678c-0.217,0.698-0.265,1.261-0.148,1.69c0.116,0.43,0.486,0.645,1.114,0.645
				c0.535,0,1.073-0.121,1.61-0.363c0.535-0.241,1.055-0.563,1.555-0.965s0.979-0.863,1.436-1.382
				c0.244-0.278,0.468-0.568,0.701-0.852c-0.052,0.528-0.027,1.015,0.075,1.455c0.154,0.636,0.481,1.146,0.981,1.53
				c0.5,0.384,1.226,0.577,2.172,0.577c0.592,0,1.182-0.121,1.771-0.363c0.589-0.241,1.171-0.563,1.744-0.965
				c0.57-0.402,1.122-0.863,1.649-1.382S164.938,47.894,165.404,47.357z M149.063,48.309c-0.5,0.689-1,1.261-1.501,1.717
				c-0.5,0.457-0.938,0.684-1.316,0.684c-0.374,0-0.522-0.303-0.441-0.913c0.081-0.607,0.301-1.364,0.657-2.267
				c0.357-0.903,0.822-1.864,1.396-2.884c0.57-1.019,1.174-1.944,1.81-2.776c0.635-0.832,1.252-1.48,1.854-1.946
				c0.598-0.465,1.111-0.589,1.541-0.375c0.16,0.09,0.255,0.264,0.281,0.523c0.027,0.259,0.006,0.568-0.064,0.925h-1.693
				c0.322,0.09,0.466,0.394,0.431,0.914c-0.035,0.518-0.187,1.135-0.457,1.85c-0.267,0.716-0.626,1.48-1.072,2.295
				C150.04,46.87,149.563,47.621,149.063,48.309z M159.809,44.218c0.527-0.805,1.082-1.564,1.663-2.28
				c0.582-0.715,1.163-1.352,1.744-1.905c0.582-0.554,1.114-0.966,1.596-1.234c-0.411,0.733-0.789,1.533-1.139,2.401
				c-0.349,0.868-0.738,1.687-1.168,2.456c-0.427,0.769-0.933,1.422-1.514,1.959c-0.582,0.537-1.301,0.84-2.161,0.911
				c-0.159,0-0.276,0.01-0.349,0.027C158.838,45.801,159.281,45.022,159.809,44.218z"/>
			<path fill-rule="evenodd" clip-rule="evenodd" fill="#FFFFFF" d="M1.655,56.761c0.763,0.587,1.863,0.879,3.31,0.879
				c0.898,0,1.796-0.184,2.696-0.552c0.898-0.368,1.782-0.857,2.656-1.47c0.87-0.613,1.706-1.313,2.509-2.104
				c0.371-0.363,0.728-0.729,1.076-1.097c-0.2,0.504-0.381,0.993-0.524,1.445c-0.216,0.694-0.311,1.294-0.286,1.797
				c0.026,0.504,0.178,0.906,0.448,1.206c0.273,0.3,0.725,0.449,1.35,0.449c0.816,0,1.637-0.184,2.453-0.552
				c0.813-0.368,1.606-0.857,2.366-1.471c0.765-0.613,1.492-1.314,2.188-2.104s1.354-1.593,1.982-2.411
				c1.414-1.906,2.764-4.098,4.046-6.577h-4.252c0.49,0.137,0.736,0.518,0.736,1.144c0,0.626-0.171,1.362-0.512,2.205
				c-0.341,0.844-0.812,1.744-1.408,2.697c-0.601,0.953-1.247,1.832-1.942,2.635c-0.694,0.804-1.396,1.471-2.104,2.002
				c-0.709,0.531-1.347,0.796-1.917,0.796c-0.385,0-0.515-0.299-0.39-0.898c0.121-0.599,0.44-1.362,0.96-2.289
				c2.588-4.683,4.895-8.688,6.923-12.01s3.739-6.1,5.13-8.334c1.387-2.233,2.437-3.996,3.143-5.29
				c0.711-1.293,1.043-2.274,1.003-2.941c-0.041-0.667-0.471-1.096-1.287-1.287c-0.816-0.191-2.056-0.286-3.719-0.286
				c0.327,0,0.417,0.333,0.266,1c-0.149,0.668-0.468,1.566-0.96,2.696c-0.49,1.13-1.109,2.445-1.858,3.942
				c-0.749,1.499-1.568,3.064-2.45,4.699c-0.887,1.633-1.793,3.289-2.718,4.964s-1.804,3.268-2.634,4.78
				c-0.019,0.035-0.037,0.067-0.057,0.101h-2.25c0.489,0.136,0.685,0.53,0.59,1.181c-0.095,0.652-0.387,1.425-0.876,2.321
				c-0.49,0.896-1.134,1.838-1.921,2.83c-0.792,0.99-1.641,1.913-2.555,2.769c-0.912,0.856-1.823,1.561-2.737,2.117
				C7.218,56.3,6.394,56.578,5.66,56.578c-0.708,0-1.255-0.149-1.636-0.45c-0.382-0.299-0.619-0.715-0.714-1.245
				c-0.098-0.532-0.062-1.151,0.103-1.859c0.162-0.708,0.405-1.471,0.735-2.288h0.324c2.018-0.109,3.765-0.584,5.252-1.426
				c1.482-0.842,2.777-1.854,3.881-3.036s2.028-2.459,2.777-3.831c0.749-1.373,1.39-2.636,1.92-3.79
				c0.53-1.154,0.979-2.112,1.35-2.873c0.364-0.761,0.714-1.142,1.041-1.142c-1.336-0.38-2.447-0.353-3.329,0.083
				c-0.887,0.436-1.669,1.117-2.35,2.042c-1.391,0.055-2.751,0.388-4.087,1.001c-1.336,0.612-2.593,1.409-3.777,2.39
				c-1.185,0.98-2.261,2.097-3.229,3.349c-0.965,1.253-1.763,2.526-2.388,3.82c-0.627,1.293-1.07,2.561-1.33,3.799
				c-0.257,1.241-0.271,2.343-0.041,3.31C0.396,55.4,0.893,56.177,1.655,56.761z M6.577,46.324c0.803-1.226,1.649-2.383,2.533-3.474
				c0.885-1.088,1.771-2.056,2.656-2.9c0.884-0.844,1.695-1.471,2.431-1.879c-0.627,1.117-1.206,2.335-1.735,3.656
				c-0.533,1.321-1.125,2.567-1.777,3.738c-0.654,1.171-1.425,2.166-2.31,2.982c-0.884,0.817-1.981,1.281-3.288,1.39
				c-0.246,0-0.425,0.014-0.533,0.041C5.101,48.734,5.773,47.549,6.577,46.324z"/>
			<g>
				<path fill-rule="evenodd" clip-rule="evenodd" fill="#FFFFFF" d="M258.338,50.706h0.492c3.031-0.164,5.663-0.878,7.894-2.144
					c2.234-1.267,4.179-2.788,5.836-4.566c1.66-1.777,3.051-3.697,4.178-5.76c1.125-2.063,2.091-3.962,2.889-5.698
					s1.474-3.176,2.028-4.319c0.552-1.146,1.073-1.718,1.565-1.718c-2.006-0.573-3.678-0.531-5.006,0.124
					c-1.333,0.657-2.509,1.679-3.531,3.071c-2.091,0.083-4.141,0.585-6.146,1.505c-2.007,0.922-3.899,2.119-5.682,3.594
					c-1.782,1.474-3.399,3.154-4.854,5.037c-0.668,0.868-1.276,1.742-1.839,2.623h-2.642c0.789,0.22,1.185,0.833,1.185,1.842
					c0,0.259-0.02,0.532-0.055,0.814c-0.081,0.156-0.168,0.31-0.243,0.465c-0.809,1.671-1.401,3.309-1.801,4.919
					c-0.306,0.556-0.631,1.118-0.995,1.698c-0.966,1.537-2.007,2.951-3.124,4.244c-1.119,1.295-2.25,2.369-3.391,3.224
					c-1.142,0.856-2.172,1.283-3.091,1.283c-0.614,0-0.822-0.481-0.628-1.447c0.2-0.965,0.714-2.192,1.547-3.686
					c4.17-7.544,7.886-13.993,11.155-19.345c3.267-5.352,6.02-9.827,8.259-13.424c2.236-3.598,3.924-6.438,5.067-8.522
					c1.139-2.083,1.677-3.663,1.609-4.738c-0.062-1.074-0.755-1.765-2.071-2.072c-1.317-0.307-3.313-0.46-5.987-0.46
					c0.527,0,0.668,0.537,0.427,1.612c-0.24,1.076-0.757,2.523-1.547,4.343c-0.789,1.821-1.787,3.938-2.993,6.351
					c-1.209,2.414-2.523,4.935-3.948,7.567c-1.428,2.633-2.886,5.298-4.376,7.995c-1.419,2.567-2.766,5.01-4.045,7.338h-3.456
					c0.79,0.22,1.139,0.833,1.052,1.842c-0.089,1.01-0.473,2.194-1.152,3.553c-0.679,1.36-1.579,2.809-2.695,4.343
					c-1.12,1.537-2.294,2.951-3.521,4.244c-1.23,1.295-2.458,2.369-3.686,3.224c-1.228,0.856-2.305,1.283-3.224,1.283
					c-0.527,0-0.725-0.394-0.593-1.184c0.133-0.791,0.492-1.82,1.085-3.094c0.592-1.272,1.371-2.741,2.337-4.409
					c0.965-1.666,1.974-3.356,3.028-5.067c2.499-4.036,5.546-8.621,9.146-13.752c-0.397-0.569-0.986-1.096-1.776-1.579
					c-0.66-0.396-1.536-0.757-2.634-1.086c-1.099-0.329-2.478-0.494-4.146-0.494c0.833,0,1.185,0.472,1.055,1.415
					c-0.133,0.944-0.561,2.205-1.285,3.784c-0.722,1.579-1.644,3.366-2.764,5.362c-0.298,0.534-0.601,1.075-0.9,1.613h-3.604
					c0.789,0.263,1.151,0.921,1.084,1.974c-0.064,1.053-0.395,2.282-0.986,3.686c-0.593,1.405-1.383,2.895-2.369,4.475
					c-0.987,1.579-2.039,3.026-3.159,4.342c-1.116,1.316-2.226,2.402-3.323,3.257c-1.096,0.856-2.039,1.283-2.828,1.283
					c-0.571,0-0.814-0.395-0.726-1.185c0.09-0.79,0.406-1.832,0.955-3.125c0.549-1.293,1.284-2.774,2.204-4.442
					c0.922-1.667,1.931-3.367,3.028-5.1c1.096-1.732,2.212-3.432,3.356-5.099c1.139-1.668,2.212-3.148,3.223-4.442
					c1.009-1.293,1.896-2.337,2.667-3.125c0.765-0.79,1.325-1.185,1.677-1.185c-0.133-0.351-0.341-0.746-0.625-1.185
					c-0.287-0.438-0.671-0.844-1.152-1.218c-0.483-0.371-1.03-0.7-1.644-0.986c-0.617-0.285-1.317-0.449-2.106-0.494
					c-1.099-0.042-2.315,0.33-3.651,1.12c-1.341,0.789-2.712,1.854-4.113,3.191c-1.403,1.339-2.831,2.862-4.277,4.574
					c-1.447,1.711-2.829,3.487-4.146,5.33c2.106-3.465,4.321-7.051,6.646-10.758c2.323-3.707,4.573-7.25,6.744-10.628
					c2.172-3.378,4.168-6.438,5.987-9.179c1.82-2.742,3.259-4.88,4.311-6.416c-0.395-0.57-0.987-1.097-1.776-1.579
					c-0.657-0.396-1.536-0.757-2.631-1.086c-1.099-0.329-2.48-0.494-4.146-0.494c0.568,0.396,0.481,1.558-0.262,3.488
					c-0.749,1.932-1.909,4.333-3.488,7.206c-1.58,2.874-3.424,6.078-5.527,9.607c-2.107,3.532-4.211,7.106-6.317,10.727
					c-1.848,3.174-3.586,6.276-5.23,9.314h-6.146c0.887,0.248,1.244,0.949,1.071,2.105c-0.174,1.159-0.69,2.538-1.55,4.137
					c-0.862,1.602-2.021,3.312-3.473,5.134c-1.455,1.822-3.028,3.483-4.727,4.985c-1.698,1.503-3.424,2.758-5.171,3.769
					c-1.75,1.009-3.386,1.514-4.913,1.514c-2.413,0-4.003-0.886-4.766-2.66s-0.922-4.087-0.479-6.944
					c0.443-2.855,1.391-6.068,2.845-9.639c1.45-3.57,3.186-7.177,5.206-10.822c2.021-3.644,4.235-7.116,6.647-10.415
					c2.414-3.299,4.789-6.118,7.131-8.458c2.336-2.339,4.554-4,6.646-4.987c2.094-0.984,3.854-0.96,5.281,0.075
					c-1.428,1.625-2.807,3.545-4.137,5.761c-1.328,2.217-2.609,4.506-3.84,6.87c-1.233,2.364-2.426,4.703-3.584,7.018
					c-1.157,2.315-2.276,4.395-3.361,6.242c-1.084,1.846-2.104,3.349-3.063,4.505c-0.963,1.158-1.86,1.762-2.696,1.81
					c2.215,0.295,4.443-0.381,6.685-2.031c2.239-1.65,4.395-3.816,6.464-6.5c2.068-2.683,4.037-5.625,5.908-8.828
					c1.871-3.2,3.583-6.192,5.136-8.975c1.55-2.781,2.88-5.108,3.988-6.98c1.106-1.871,1.958-2.807,2.548-2.807
					c-1.576-0.739-3.115-0.823-4.616-0.258c-1.504,0.566-2.97,1.587-4.397,3.065c-1.771-2.167-3.753-3.386-5.943-3.657
					c-2.193-0.271-4.471,0.148-6.834,1.256c-2.363,1.108-4.74,2.82-7.128,5.134c-2.388,2.315-4.679,4.975-6.872,7.978
					c-2.19,3.005-4.208,6.23-6.055,9.677c-1.847,3.446-3.399,6.895-4.654,10.34c-1.257,3.449-2.155,6.76-2.695,9.936
					c-0.544,3.176-0.617,5.983-0.223,8.42c0.393,2.438,1.342,4.383,2.846,5.836c1.498,1.453,3.678,2.18,6.536,2.18
					c1.771,0,3.531-0.345,5.281-1.035c1.747-0.689,3.435-1.587,5.06-2.695c1.625-1.109,3.188-2.376,4.689-3.806
					c1.503-1.427,2.92-2.88,4.248-4.357c1.017-1.148,2.015-2.361,2.993-3.625c-0.324,0.747-0.622,1.466-0.89,2.159
					c-1.03,2.654-1.536,4.792-1.514,6.415c0.021,1.624,0.867,2.436,2.533,2.436c-0.524,0-0.384-0.91,0.428-2.731
					c0.813-1.82,2.03-4.223,3.653-7.206c1.622-2.456,3.399-4.935,5.33-7.436c1.928-2.5,3.815-4.759,5.657-6.777
					c1.844-2.017,3.51-3.662,5-4.936c1.493-1.271,2.609-1.908,3.358-1.908c-4.389,5.791-7.81,10.968-10.265,15.53
					c-1.055,1.93-1.953,3.827-2.699,5.691c-0.746,1.865-1.185,3.521-1.316,4.969c-0.13,1.447,0.143,2.61,0.821,3.488
					c0.682,0.877,1.921,1.316,3.722,1.316c1.095,0,2.226-0.297,3.388-0.889c1.16-0.593,2.302-1.382,3.421-2.369
					c0.666-0.585,1.32-1.228,1.967-1.915c-0.409,1.567-0.452,2.82-0.125,3.757c0.33,0.944,1.217,1.415,2.664,1.415
					c1.316,0,2.655-0.297,4.016-0.889c1.357-0.593,2.696-1.382,4.013-2.369c1.317-0.987,2.589-2.116,3.818-3.389
					c0.168-0.175,0.325-0.354,0.492-0.529c-0.211,0.558-0.397,1.099-0.56,1.615c-0.352,1.119-0.503,2.084-0.459,2.896
					c0.043,0.812,0.283,1.459,0.722,1.941c0.44,0.483,1.163,0.724,2.171,0.724c1.317,0,2.635-0.297,3.948-0.889
					c1.317-0.593,2.589-1.382,3.818-2.369c1.226-0.987,2.401-2.116,3.521-3.389c0.514-0.585,1.011-1.175,1.503-1.77
					c0.041,0.38,0.104,0.749,0.189,1.104c0.347,1.454,1.096,2.621,2.242,3.501c1.144,0.881,2.805,1.321,4.976,1.321
					c1.35,0,2.702-0.277,4.054-0.83c1.353-0.553,2.683-1.291,3.994-2.212c1.309-0.921,2.569-1.975,3.778-3.163
					c1.206-1.188,2.342-2.396,3.407-3.625c2.498-2.866,4.895-6.164,7.188-9.891h-6.387c0.738,0.205,1.032,0.796,0.892,1.776
					c-0.146,0.979-0.584,2.143-1.322,3.49s-1.701,2.765-2.888,4.254c-1.188,1.49-2.467,2.878-3.84,4.164
					c-1.371,1.287-2.742,2.348-4.113,3.184c-1.374,0.837-2.612,1.255-3.719,1.255c-1.065,0-1.885-0.225-2.458-0.677
					c-0.573-0.45-0.931-1.074-1.073-1.873c-0.146-0.799-0.095-1.729,0.151-2.795C257.479,53.082,257.846,51.934,258.338,50.706z
					 M265.805,38.85c1.33-1.638,2.661-3.092,3.991-4.362s2.55-2.211,3.656-2.826c-0.943,1.679-1.812,3.512-2.612,5.498
					c-0.798,1.987-1.688,3.86-2.672,5.622c-0.981,1.761-2.142,3.256-3.47,4.485c-1.333,1.229-2.979,1.925-4.945,2.088
					c-0.371,0-0.636,0.021-0.801,0.062c0.819-1.72,1.833-3.501,3.042-5.345S264.472,40.489,265.805,38.85z"/>
				<path fill-rule="evenodd" clip-rule="evenodd" fill="#FFFFFF" d="M236.496,27.663c-0.124,0.163-0.249,0.324-0.387,0.5
					c0.043-0.011,0.064-0.018,0.089-0.024c1.525-0.45,3.051-0.901,4.573-1.354c0.06-0.017,0.092-0.008,0.124,0.043
					c0.903,1.316,1.807,2.63,2.71,3.944c0.014,0.018,0.027,0.035,0.046,0.062c0.003-0.034,0.003-0.055,0.006-0.076
					c0.043-1.597,0.083-3.192,0.124-4.789c0.003-0.058,0.021-0.08,0.075-0.096c1.523-0.448,3.045-0.899,4.57-1.349
					c0.02-0.006,0.044-0.014,0.062-0.021c0-0.005,0-0.01,0-0.014c-0.027-0.011-0.057-0.021-0.081-0.03
					c-1.493-0.529-2.98-1.057-4.47-1.585c-0.047-0.016-0.076-0.026-0.073-0.09c0.04-1.439,0.075-2.878,0.116-4.316
					c0.005-0.184,0.008-0.365,0.014-0.558c-0.024,0.027-0.038,0.045-0.055,0.064c-0.968,1.262-1.941,2.525-2.909,3.788
					c-0.038,0.052-0.07,0.058-0.128,0.037c-1.492-0.531-2.985-1.06-4.478-1.59c-0.027-0.009-0.054-0.016-0.101-0.031
					c0.027,0.039,0.041,0.061,0.055,0.081c0.9,1.309,1.801,2.619,2.698,3.926c0.03,0.042,0.038,0.069,0.003,0.116
					C238.219,25.421,237.355,26.542,236.496,27.663z"/>
			</g>
		</g>
		<g>
			<g>
				<path fill="#FFFFFF" d="M159.593,84.283c-0.957-1.9-0.723-3.444,0.714-4.628c1.433-1.186,3.716-2.113,6.847-2.781
					c3.135-0.668,6.967-1.129,11.507-1.382c4.538-0.253,9.454-0.38,14.746-0.381c5.295-0.001,10.81,0.074,16.548,0.227
					c5.735,0.15,11.377,0.286,16.923,0.409c5.544,0.12,10.822,0.178,15.825,0.172c5.008-0.008,9.427-0.17,13.259-0.488
					c3.832-0.318,6.923-0.834,9.273-1.544c2.347-0.712,3.629-1.7,3.84-2.966c-0.101,1.261-1.174,2.354-3.229,3.282
					c-2.052,0.926-4.808,1.722-8.261,2.385c-3.456,0.664-7.47,1.217-12.037,1.663c-4.57,0.445-9.435,0.818-14.603,1.118
					c-5.165,0.299-10.466,0.548-15.904,0.746c-5.436,0.197-10.746,0.379-15.938,0.547c-5.189,0.168-10.114,0.342-14.771,0.524
					c-4.656,0.184-8.768,0.398-12.337,0.649c-3.566,0.25-6.458,0.574-8.667,0.974C161.118,83.208,159.874,83.7,159.593,84.283z"/>
			</g>
			<g>
				<path fill="#FFFFFF" d="M125.861,83.64c0.862-1.934,0.579-3.468-0.857-4.599c-1.434-1.132-3.681-1.974-6.741-2.526
					c-3.064-0.552-6.802-0.872-11.215-0.956c-4.413-0.086-9.189-0.031-14.327,0.164c-5.138,0.195-10.484,0.475-16.047,0.84
					c-5.562,0.361-11.03,0.706-16.409,1.034c-5.374,0.325-10.495,0.579-15.353,0.757c-4.859,0.177-9.153,0.178-12.883,0.003
					c-3.729-0.177-6.747-0.578-9.051-1.2c-2.305-0.625-3.583-1.565-3.835-2.822c0.144,1.256,1.225,2.309,3.248,3.16
					c2.028,0.849,4.732,1.542,8.104,2.077c3.378,0.535,7.293,0.94,11.741,1.217c4.449,0.276,9.187,0.469,14.209,0.577
					c5.024,0.108,10.176,0.161,15.46,0.157c5.281-0.005,10.443-0.019,15.489-0.043c5.039-0.024,9.825-0.032,14.35-0.022
					c4.526,0.011,8.523,0.074,11.993,0.192c3.472,0.117,6.29,0.335,8.445,0.653C124.344,82.622,125.569,83.067,125.861,83.64z"/>
			</g>
			<path fill-rule="evenodd" clip-rule="evenodd" fill="#FFFFFF" d="M138.398,85.983c-0.081,0.249-0.163,0.493-0.255,0.764
				c0.046-0.031,0.073-0.049,0.095-0.066c1.647-1.177,3.297-2.355,4.94-3.534c0.065-0.045,0.108-0.048,0.168-0.001
				c1.634,1.208,3.267,2.413,4.9,3.617c0.024,0.017,0.049,0.032,0.084,0.055c-0.014-0.041-0.021-0.067-0.027-0.093
				c-0.614-1.939-1.23-3.876-1.844-5.813c-0.022-0.069-0.009-0.104,0.051-0.147c1.645-1.173,3.288-2.35,4.934-3.526
				c0.024-0.016,0.047-0.037,0.065-0.052c0-0.006-0.003-0.011-0.003-0.017c-0.038-0.002-0.078-0.002-0.112-0.001
				c-2.015-0.016-4.023-0.031-6.036-0.045c-0.062,0-0.103,0-0.127-0.077c-0.549-1.75-1.105-3.495-1.657-5.241
				c-0.07-0.223-0.141-0.443-0.217-0.676c-0.016,0.042-0.026,0.07-0.035,0.098c-0.644,1.921-1.284,3.848-1.925,5.769
				c-0.024,0.079-0.06,0.099-0.139,0.098c-2.017-0.016-4.031-0.03-6.052-0.048c-0.035,0-0.07,0.003-0.127,0.005
				c0.046,0.035,0.073,0.057,0.095,0.075c1.628,1.2,3.256,2.4,4.884,3.598c0.054,0.039,0.073,0.07,0.052,0.14
				C139.536,82.569,138.969,84.277,138.398,85.983z"/>
		</g>
	</g>
	<g>
		<path fill="#FFFFFF" d="M142.144,63.598c-0.46,0.304-0.89,0.376-1.293,0.217c-0.4-0.159-0.719-0.464-0.957-0.915
			c-0.24-0.452-0.384-1.015-0.433-1.692c-0.049-0.677,0.038-1.39,0.257-2.137c0.222-0.748,0.601-1.489,1.133-2.226
			c0.535-0.737,1.266-1.391,2.19-1.961c0.928-0.57,2.071-1.021,3.435-1.353c1.363-0.331,2.978-0.464,4.849-0.4
			c2.089,0.072,3.871,0.162,5.351,0.271c1.477,0.109,2.742,0.2,3.802,0.272c1.055,0.073,1.958,0.108,2.707,0.104
			c0.747-0.003,1.428-0.089,2.045-0.257c0.286,0.939,0.341,1.605,0.159,1.999c-0.181,0.393-0.549,0.598-1.108,0.615
			c-0.56,0.017-1.29-0.095-2.188-0.336c-0.9-0.242-1.922-0.517-3.066-0.825c-1.144-0.307-2.393-0.601-3.748-0.88
			c-1.354-0.278-2.771-0.443-4.252-0.494c-1.363-0.047-2.559,0.058-3.592,0.312c-1.033,0.255-1.92,0.605-2.66,1.053
			c-0.744,0.446-1.348,0.963-1.82,1.549c-0.468,0.585-0.838,1.194-1.106,1.824c-0.268,0.63-0.443,1.248-0.519,1.855
			c-0.082,0.607-0.098,1.158-0.049,1.653s0.151,0.902,0.309,1.219C141.743,63.384,141.927,63.561,142.144,63.598z"/>
	</g>
</g>
</svg>
